<svg width="87" height="40" viewBox="0 0 87 40" fill="none" xmlns="http://www.w3.org/2000/svg">
<path d="M13.8025 14.526C14.6113 15.1048 15.4907 15.5649 16.4405 15.9062L15.2272 18.2326C14.7301 18.0842 14.244 17.8801 13.7691 17.6204C13.6652 17.5685 12.9343 17.0861 11.5763 16.1734C10.5077 16.6409 9.32409 16.8746 8.02547 16.8746C5.51728 16.8746 3.5508 16.1363 2.12603 14.6596C0.708676 13.1828 0 11.1088 0 8.43732C0 5.77329 0.712386 3.70292 2.13716 2.22621C3.56193 0.742068 5.49502 0 7.93642 0C10.3556 0 12.2738 0.742068 13.6912 2.22621C15.1085 3.70292 15.8172 5.77329 15.8172 8.43732C15.8172 9.84725 15.6205 11.0865 15.2272 12.1551C14.9304 12.9714 14.4555 13.7617 13.8025 14.526ZM11.1533 12.6671C11.5763 12.1699 11.8916 11.5688 12.0994 10.8639C12.3146 10.1589 12.4222 9.35006 12.4222 8.43732C12.4222 6.55247 12.0067 5.14625 11.1756 4.21866C10.3444 3.28365 9.25731 2.81615 7.91416 2.81615C6.57102 2.81615 5.48018 3.28365 4.64164 4.21866C3.81052 5.15367 3.39496 6.55989 3.39496 8.43732C3.39496 10.3444 3.81052 11.7729 4.64164 12.7228C5.48018 13.6652 6.53762 14.1364 7.81398 14.1364C8.28891 14.1364 8.73786 14.0585 9.16084 13.9027C8.49298 13.4648 7.81398 13.1235 7.12386 12.8786L8.04773 10.9975C9.13115 11.3685 10.1663 11.925 11.1533 12.6671Z" fill="black"/>
<path d="M18.4219 16.5964V0.278276H25.3565C27.1003 0.278276 28.3656 0.426689 29.1522 0.723517C29.9462 1.01292 30.5806 1.53237 31.0556 2.28186C31.5305 3.03135 31.768 3.88844 31.768 4.85313C31.768 6.07754 31.4081 7.09047 30.6882 7.8919C29.9684 8.68591 28.8924 9.18681 27.4603 9.39459C28.1726 9.81015 28.7589 10.2665 29.219 10.7637C29.6865 11.2609 30.3135 12.144 31.1001 13.4129L33.0926 16.5964H29.1522L26.7701 13.0456C25.9242 11.7766 25.3454 10.9789 25.0337 10.6524C24.722 10.3185 24.3918 10.0921 24.043 9.9734C23.6943 9.84725 23.1414 9.78417 22.3845 9.78417H21.7166V16.5964H18.4219ZM21.7166 7.17951H24.1543C25.7349 7.17951 26.7219 7.11273 27.1152 6.97916C27.5085 6.84558 27.8164 6.61554 28.0391 6.28903C28.2617 5.96252 28.373 5.55438 28.373 5.06462C28.373 4.51549 28.2246 4.07396 27.9278 3.74003C27.6383 3.39867 27.2265 3.18347 26.6922 3.09443C26.4251 3.05732 25.6236 3.03877 24.2879 3.03877H21.7166V7.17951Z" fill="black"/>
<path d="M34.9737 16.5964V0.411848H38.2685V13.847H46.4609V16.5964H34.9737Z" fill="black"/>
<path d="M48.7205 16.5964V0.278276H52.0153V16.5964H48.7205Z" fill="black"/>
<path d="M55.1988 16.5964V0.278276H58.4045L65.0831 11.1756V0.278276H68.1442V16.5964H64.8382L58.2598 5.9551V16.5964H55.1988Z" fill="black"/>
<path d="M71.6838 16.5964V0.278276H74.9786V7.52457L81.635 0.278276H86.0651L79.9208 6.63409L86.399 16.5964H82.1359L77.6501 8.93822L74.9786 11.6653V16.5964H71.6838Z" fill="black"/>
<path d="M25.1787 38.7368V23.302H29.8428L32.6434 33.8305L35.4124 23.302H40.0871V38.7368H37.1917V26.5869L34.1279 38.7368H31.1273L28.0741 26.5869V38.7368H25.1787Z" fill="black"/>
<path d="M43.1825 38.7368V23.302H54.627V25.9131H46.2989V29.3348H54.0479V31.9354H46.2989V36.1363H54.9218V38.7368H43.1825Z" fill="black"/>
<path d="M57.596 38.7368V23.302H60.6282L66.9453 33.6094V23.302H69.8407V38.7368H66.7137L60.4913 28.6715V38.7368H57.596Z" fill="black"/>
<path d="M73.1255 23.302H76.242V31.6616C76.242 32.9882 76.2806 33.8481 76.3578 34.2411C76.4912 34.8728 76.807 35.3817 77.3054 35.7678C77.8107 36.1468 78.4986 36.3363 79.369 36.3363C80.2533 36.3363 80.9202 36.1573 81.3694 35.7993C81.8186 35.4344 82.0888 34.9886 82.1801 34.4622C82.2713 33.9358 82.3169 33.0619 82.3169 31.8406V23.302H85.4334V31.409C85.4334 33.262 85.3491 34.571 85.1807 35.3361C85.0122 36.1012 84.6999 36.7469 84.2437 37.2733C83.7944 37.7998 83.1908 38.2209 82.4328 38.5368C81.6747 38.8456 80.685 39 79.4637 39C77.9897 39 76.8702 38.8316 76.1051 38.4946C75.3471 38.1507 74.7469 37.7085 74.3047 37.168C73.8625 36.6206 73.5713 36.0485 73.4309 35.4519C73.2273 34.5675 73.1255 33.262 73.1255 31.5353V23.302Z" fill="black"/>
<path d="M8.25004 24.8752H3.80066C2.85553 24.8752 2.08936 25.6414 2.08936 26.5865V31.0359" stroke="black" stroke-width="1.28348"/>
<path d="M8.25004 38.7368H3.80066C2.85553 38.7368 2.08936 37.9706 2.08936 37.0255V32.5761" stroke="black" stroke-width="1.28348"/>
<path d="M9.79049 24.8752H14.2399C15.185 24.8752 15.9512 25.6414 15.9512 26.5865V31.0359" stroke="black" stroke-width="1.28348"/>
<path d="M9.79049 38.7368H14.2399C15.185 38.7368 15.9512 37.9706 15.9512 37.0255V32.5761" stroke="black" stroke-width="1.28348"/>
<rect x="9.79053" y="26.4155" width="4.62051" height="4.62051" rx="0.85565" fill="black"/>
<rect x="9.79053" y="32.5762" width="4.62051" height="4.62051" rx="0.85565" fill="black"/>
<rect x="3.62988" y="26.4155" width="4.62051" height="4.62051" rx="0.85565" fill="black"/>
<rect x="3.62988" y="32.5762" width="4.62051" height="4.62051" rx="0.85565" fill="black"/>
</svg>
