<svg width="87" height="39" viewBox="0 0 87 39" fill="none" xmlns="http://www.w3.org/2000/svg">
<path d="M14.502 14.2098C15.2932 14.776 16.1535 15.226 17.0826 15.56L15.8958 17.8357C15.4094 17.6905 14.9339 17.4909 14.4693 17.2368C14.3677 17.186 13.6527 16.7142 12.3243 15.8213C11.2789 16.2786 10.1211 16.5073 8.85076 16.5073C6.39717 16.5073 4.4735 15.785 3.07974 14.3404C1.69325 12.8959 1 10.8669 1 8.25364C1 5.64761 1.69688 3.62231 3.09063 2.17774C4.48439 0.725914 6.37539 0 8.76365 0C11.1301 0 13.0066 0.725914 14.3931 2.17774C15.7796 3.62231 16.4729 5.64761 16.4729 8.25364C16.4729 9.63288 16.2805 10.8452 15.8958 11.8905C15.6054 12.689 15.1408 13.4621 14.502 14.2098ZM11.9105 12.3913C12.3243 11.905 12.6328 11.317 12.836 10.6274C13.0465 9.93776 13.1518 9.14651 13.1518 8.25364C13.1518 6.40982 12.7453 5.03421 11.9323 4.12682C11.1192 3.21217 10.0558 2.75484 8.74187 2.75484C7.42797 2.75484 6.36087 3.21217 5.54059 4.12682C4.72757 5.04147 4.32106 6.41708 4.32106 8.25364C4.32106 10.1192 4.72757 11.5166 5.54059 12.4458C6.36087 13.3677 7.3953 13.8287 8.64387 13.8287C9.10846 13.8287 9.54763 13.7524 9.9614 13.6C9.30808 13.1717 8.64387 12.8378 7.96877 12.5982L8.87253 10.758C9.93237 11.121 10.945 11.6654 11.9105 12.3913Z" fill="black"/>
<path d="M19.0208 16.2351V0.272218H25.8045C27.5104 0.272218 28.7481 0.4174 29.5175 0.707766C30.2943 0.990872 30.9149 1.49901 31.3795 2.23218C31.8441 2.96536 32.0764 3.80379 32.0764 4.74748C32.0764 5.94523 31.7243 6.93611 31.0202 7.72009C30.316 8.49682 29.2635 8.98681 27.8624 9.19007C28.5593 9.59658 29.1328 10.043 29.5829 10.5294C30.0402 11.0157 30.6536 11.8796 31.423 13.1209L33.3721 16.2351H29.5175L27.1873 12.7616C26.3598 11.5203 25.7936 10.7399 25.4887 10.4205C25.1838 10.0938 24.8608 9.87243 24.5196 9.75628C24.1784 9.63288 23.6376 9.57117 22.8972 9.57117H22.2439V16.2351H19.0208ZM22.2439 7.02322H24.6285C26.1747 7.02322 27.1402 6.95788 27.5249 6.82722C27.9096 6.69656 28.2109 6.47152 28.4287 6.15212C28.6464 5.83272 28.7553 5.43347 28.7553 4.95436C28.7553 4.41719 28.6101 3.98527 28.3198 3.65861C28.0367 3.32469 27.6338 3.11417 27.1111 3.02706C26.8498 2.99076 26.0658 2.97262 24.7592 2.97262H22.2439V7.02322Z" fill="black"/>
<path d="M35.2123 16.2351V0.402882H38.4354V13.5456H46.4495V16.2351H35.2123Z" fill="black"/>
<path d="M48.6599 16.2351V0.272218H51.8829V16.2351H48.6599Z" fill="black"/>
<path d="M54.9971 16.2351V0.272218H58.133L64.6663 10.9323V0.272218H67.6607V16.2351H64.4267L57.9915 5.82546V16.2351H54.9971Z" fill="black"/>
<path d="M71.1233 16.2351V0.272218H74.3463V7.36077L80.8578 0.272218H85.1915L79.1809 6.48967L85.5181 16.2351H81.3478L76.9596 8.74363L74.3463 11.4114V16.2351H71.1233Z" fill="black"/>
<path d="M29.6826 32.3422V29.7982H36.2535V35.813C35.615 36.431 34.688 36.9769 33.4727 37.4506C32.2643 37.9175 31.0386 38.151 29.7959 38.151C28.2166 38.151 26.84 37.8214 25.6658 37.1622C24.4917 36.4962 23.6094 35.5487 23.0189 34.3196C22.4284 33.0837 22.1332 31.7414 22.1332 30.2926C22.1332 28.7202 22.4628 27.323 23.1219 26.1008C23.7811 24.8786 24.7458 23.9414 26.016 23.2891C26.9842 22.7878 28.1892 22.5372 29.6311 22.5372C31.5055 22.5372 32.968 22.932 34.0186 23.7217C35.076 24.5044 35.7557 25.5893 36.0578 26.9762L33.0298 27.5427C32.817 26.8011 32.4153 26.2175 31.8248 25.7918C31.2412 25.3592 30.5099 25.143 29.6311 25.143C28.299 25.143 27.2382 25.5652 26.4486 26.4098C25.6658 27.2543 25.2745 28.5074 25.2745 30.169C25.2745 31.9611 25.6727 33.3069 26.4692 34.2063C27.2657 35.099 28.3093 35.5453 29.6002 35.5453C30.2387 35.5453 30.8773 35.4217 31.5158 35.1745C32.1613 34.9204 32.714 34.6149 33.174 34.2578V32.3422H29.6826Z" fill="black"/>
<path d="M39.0549 22.7947H42.1035V30.9724C42.1035 32.2701 42.1413 33.1112 42.2168 33.4957C42.3473 34.1137 42.6563 34.6115 43.1438 34.9891C43.6381 35.3599 44.311 35.5453 45.1624 35.5453C46.0276 35.5453 46.6799 35.3702 47.1193 35.02C47.5587 34.6629 47.8231 34.2269 47.9123 33.712C48.0016 33.197 48.0462 32.3422 48.0462 31.1475V22.7947H51.0948V30.7252C51.0948 32.5379 51.0124 33.8184 50.8476 34.5668C50.6829 35.3152 50.3773 35.9469 49.931 36.4619C49.4916 36.9769 48.9011 37.3888 48.1595 37.6978C47.418 37.9999 46.4498 38.151 45.2551 38.151C43.8132 38.151 42.7181 37.9862 41.9696 37.6566C41.2281 37.3202 40.641 36.8876 40.2085 36.3589C39.7759 35.8233 39.4909 35.2637 39.3536 34.6801C39.1545 33.815 39.0549 32.5379 39.0549 30.8488V22.7947Z" fill="black"/>
<path d="M54.2258 37.8935V22.7947H57.2744V37.8935H54.2258Z" fill="black"/>
<path d="M60.1788 22.7947H65.7507C67.0073 22.7947 67.9651 22.8908 68.6242 23.0831C69.51 23.344 70.2687 23.8075 70.9004 24.4735C71.5321 25.1395 72.0127 25.9566 72.3423 26.9247C72.6719 27.886 72.8367 29.0739 72.8367 30.4883C72.8367 31.7311 72.6822 32.8022 72.3732 33.7017C71.9955 34.8003 71.4566 35.6894 70.7562 36.3692C70.2275 36.8842 69.5134 37.2858 68.6139 37.5742C67.9411 37.7871 67.0416 37.8935 65.9155 37.8935H60.1788V22.7947ZM63.2274 25.3489V35.3496H65.5036C66.355 35.3496 66.9695 35.3015 67.3471 35.2054C67.8415 35.0818 68.25 34.8724 68.5727 34.5771C68.9023 34.2819 69.1701 33.7978 69.3761 33.1249C69.5821 32.4452 69.6851 31.5217 69.6851 30.3544C69.6851 29.1871 69.5821 28.2911 69.3761 27.6663C69.1701 27.0415 68.8817 26.554 68.511 26.2038C68.1402 25.8536 67.6698 25.6167 67.0999 25.4931C66.6742 25.397 65.84 25.3489 64.5972 25.3489H63.2274Z" fill="black"/>
<path d="M75.4321 37.8935V22.7947H86.6274V25.3489H78.4807V28.6962H86.061V31.2401H78.4807V35.3496H86.9158V37.8935H75.4321Z" fill="black"/>
<path d="M7.56404 22.827H3.21152C2.28697 22.827 1.53748 23.5765 1.53748 24.5011V28.8536" stroke="black" stroke-width="1.25553"/>
<path d="M7.56404 37.8934H3.21152C2.28697 37.8934 1.53748 37.1439 1.53748 36.2194V31.8669" stroke="black" stroke-width="1.25553"/>
<path d="M10.5773 22.827H14.9298C15.8544 22.827 16.6039 23.5765 16.6039 24.5011V28.8536" stroke="black" stroke-width="1.25553"/>
<path d="M10.5773 37.8934H14.9298C15.8544 37.8934 16.6039 37.1439 16.6039 36.2194V31.8669" stroke="black" stroke-width="1.25553"/>
<rect x="4.55078" y="25.8403" width="9.03985" height="9.03985" rx="0.837023" fill="black"/>
</svg>
