<svg aria-hidden="true" style="position: absolute; width: 0; height: 0; overflow: hidden;" version="1.1" xmlns="http://www.w3.org/2000/svg" xmlns:xlink="http://www.w3.org/1999/xlink">
<defs>
<symbol id="icon-facebook" viewBox="0 0 32 32">
<path fill="#fff" style="fill: var(--color1, #fff)" d="M16 3.556c6.874 0 12.444 5.57 12.444 12.444 0 6.362-4.774 11.608-10.936 12.355v-0c0 0 0 0 0 0v-8.552h3.365l0.697-3.803h-4.067v-1.344c0-0.157 0.005-0.306 0.015-0.449 0.005-0.076 0.012-0.149 0.020-0.22 0.172-1.515 0.996-2.113 2.793-2.113 0.637 0 1.145 0.015 1.439 0.045v-0c0 0 0 0 0 0v-3.45c-0.558-0.154-1.916-0.309-2.703-0.309-4.135 0-6.053 1.941-6.073 6.132-0 0.023-0 0.047-0 0.071v1.637l-2.569 0v3.803h2.569v8.273c-5.421-1.344-9.438-6.242-9.438-12.076 0-6.874 5.57-12.444 12.444-12.444z"></path>
</symbol>
<symbol id="icon-instagram-solid" viewBox="0 0 32 32">
<path fill="#fff" style="fill: var(--color1, #fff)" d="M8.889 3.556c-1.414 0-2.771 0.562-3.771 1.562s-1.562 2.356-1.563 3.77v14.223c0 1.415 0.562 2.771 1.562 3.772s2.357 1.562 3.772 1.562h14.223c1.414-0.001 2.77-0.563 3.77-1.563s1.561-2.357 1.561-3.771v-14.223c-0.001-1.414-0.563-2.77-1.562-3.769s-2.356-1.562-3.77-1.562h-14.223zM24.647 8.895c0 0.407-0.162 0.798-0.45 1.086s-0.679 0.45-1.086 0.45c-0.407 0-0.798-0.162-1.086-0.45s-0.45-0.679-0.45-1.086c0-0.407 0.162-0.798 0.45-1.086s0.679-0.45 1.086-0.45 0.798 0.162 1.086 0.45c0.288 0.288 0.45 0.679 0.45 1.086zM16.003 11.739c-1.13 0-2.214 0.449-3.013 1.248s-1.248 1.883-1.248 3.013c0 1.13 0.449 2.214 1.248 3.013s1.883 1.248 3.013 1.248c1.13 0 2.214-0.449 3.013-1.248s1.248-1.883 1.248-3.013c0-1.13-0.449-2.214-1.248-3.013s-1.883-1.248-3.013-1.248zM9.692 15.999c0-1.673 0.665-3.278 1.848-4.461s2.788-1.848 4.461-1.848c1.673 0 3.278 0.665 4.461 1.848s1.848 2.788 1.848 4.461c0 1.673-0.665 3.278-1.848 4.461s-2.788 1.848-4.461 1.848c-1.673 0-3.278-0.665-4.461-1.848s-1.848-2.788-1.848-4.461z"></path>
</symbol>
<symbol id="icon-linkedin" viewBox="0 0 32 32">
<path fill="#fff" style="fill: var(--color1, #fff)" d="M15.996 3.563c3.533 0 7.065 0.010 10.598-0.008 0.941-0.004 1.703 0.67 1.829 1.497 0.014 0.091 0.021 0.184 0.021 0.278 0 7.116 0 14.231 0 21.347 0 0.944-0.75 1.724-1.689 1.765-0.062 0.002-0.124 0.002-0.187 0.002-7.049 0-14.099 0-21.15 0-0.885 0-1.553-0.476-1.787-1.278-0.049-0.169-0.074-0.349-0.076-0.526 0-7.090 0-14.183 0-21.275 0-1.010 0.76-1.789 1.771-1.8 0.853-0.010 1.709-0.002 2.562-0.002 2.702 0 5.405 0 8.105 0h0.002zM16.828 14.489c0-0.497-0.010-0.922 0.004-1.35 0.006-0.208-0.053-0.283-0.274-0.281-1.017 0.012-2.034 0.014-3.050 0-0.243-0.004-0.297 0.076-0.297 0.305 0.006 3.783 0.006 7.564 0 11.347 0 0.231 0.060 0.313 0.299 0.309 1.056-0.012 2.111-0.012 3.167 0 0.235 0.002 0.301-0.068 0.299-0.305-0.010-1.903-0.010-3.806 0-5.71 0.002-0.394 0.027-0.792 0.095-1.179 0.144-0.804 0.509-1.457 1.371-1.672 0.259-0.064 0.537-0.080 0.805-0.076 0.898 0.010 1.446 0.425 1.645 1.307 0.107 0.472 0.148 0.965 0.152 1.451 0.016 1.958 0.010 3.915 0.002 5.873 0 0.227 0.058 0.315 0.301 0.313 1.056-0.012 2.111-0.010 3.167 0 0.226 0.002 0.288-0.072 0.288-0.293-0.008-2.105-0.006-4.21 0-6.315 0.002-0.862-0.043-1.721-0.241-2.563-0.27-1.152-0.801-2.132-1.933-2.639-1.124-0.503-2.302-0.602-3.496-0.291-0.98 0.256-1.724 0.856-2.306 1.771h0.002zM7.203 18.833c0 1.903 0.002 3.804-0.004 5.708 0 0.194 0.041 0.28 0.253 0.278 1.087-0.008 2.174-0.008 3.26 0 0.196 0 0.251-0.074 0.251-0.262-0.004-3.812-0.004-7.624 0-11.437 0-0.21-0.072-0.26-0.27-0.26-1.071 0.008-2.142 0.010-3.214 0-0.231-0.002-0.282 0.074-0.282 0.291 0.008 1.895 0.004 3.789 0.004 5.684l0.002-0.002zM9.077 11.269c1.201 0 2.164-0.954 2.166-2.144 0-1.208-0.96-2.177-2.16-2.179-1.207 0-2.162 0.959-2.162 2.171 0 1.198 0.957 2.152 2.156 2.152z"></path>
</symbol>
<symbol id="icon-arrow-left" viewBox="0 0 32 32">
<path fill="#9b6109" style="fill: var(--color2, #9b6109)" d="M19.613 21.173l-5.173-5.173 5.173-5.173c0.52-0.52 0.52-1.36 0-1.88s-1.36-0.52-1.88 0l-6.12 6.12c-0.52 0.52-0.52 1.36 0 1.88l6.12 6.12c0.52 0.52 1.36 0.52 1.88 0 0.507-0.52 0.52-1.373 0-1.893z"></path>
</symbol>
<symbol
  id="icon-facebook-messenger"
  viewBox="0 0 20 20"
  fill="none"
  xmlns="http://www.w3.org/2000/svg"
>
  <path
    fill-rule="evenodd"
    clip-rule="evenodd"
    d="M10 0.859375C4.71878 0.859375 0.625 4.72787 0.625 9.95312C0.625 12.6863 1.74513 15.048 3.56928 16.6793C3.72241 16.8164 3.81484 17.0084 3.82113 17.2139L3.87218 18.8815C3.88849 19.4134 4.43794 19.7596 4.92469 19.5447L6.7855 18.7233C6.94324 18.6537 7.12 18.6408 7.28622 18.6865C8.14131 18.9216 9.0514 19.0469 10 19.0469C15.2812 19.0469 19.375 15.1784 19.375 9.95312C19.375 4.72787 15.2812 0.859375 10 0.859375Z"
    fill="#9B6109"
  />
  <path
    fill-rule="evenodd"
    clip-rule="evenodd"
    d="M4.37047 12.6129L7.12438 8.24376C7.56243 7.54869 8.5005 7.37563 9.15778 7.86857L11.3481 9.51131C11.5491 9.66206 11.8256 9.66126 12.0257 9.50938L14.9838 7.26435C15.3787 6.96472 15.894 7.43722 15.6298 7.85653L12.8759 12.2257C12.4378 12.9207 11.4997 13.0938 10.8425 12.6008L8.65213 10.9581C8.45118 10.8074 8.17466 10.8082 7.97456 10.96L5.01641 13.2051C4.62159 13.5047 4.10619 13.0322 4.37047 12.6129Z"
    fill="white"
  />
</symbol>
<symbol
  id="icon-phone"
  viewBox="0 0 18 18"
  fill="none"
  xmlns="http://www.w3.org/2000/svg"
>
  <path
    d="M16.23 12.26L13.69 11.97C13.08 11.9 12.48 12.11 12.05 12.54L10.21 14.38C7.38004 12.94 5.06004 10.63 3.62004 7.79001L5.47004 5.94001C5.90004 5.51001 6.11004 4.91001 6.04004 4.30001L5.75004 1.78001C5.63004 0.77001 4.78004 0.0100098 3.76004 0.0100098H2.03004C0.900041 0.0100098 -0.0399593 0.95001 0.0300407 2.08001C0.560041 10.62 7.39004 17.44 15.92 17.97C17.05 18.04 17.99 17.1 17.99 15.97V14.24C18 13.23 17.24 12.38 16.23 12.26Z"
    fill="#9B6109"
  />
</symbol>
<symbol
  id="icon-emoji"
  viewBox="0 0 20 20"
  fill="none"
  xmlns="http://www.w3.org/2000/svg"
>
  <path
    d="M13.5 9C14.3284 9 15 8.32843 15 7.5C15 6.67157 14.3284 6 13.5 6C12.6716 6 12 6.67157 12 7.5C12 8.32843 12.6716 9 13.5 9Z"
    fill="#9B6109"
  />
  <path
    d="M6.5 9C7.32843 9 8 8.32843 8 7.5C8 6.67157 7.32843 6 6.5 6C5.67157 6 5 6.67157 5 7.5C5 8.32843 5.67157 9 6.5 9Z"
    fill="#9B6109"
  />
  <path
    d="M9.99 0C4.47 0 0 4.48 0 10C0 15.52 4.47 20 9.99 20C15.52 20 20 15.52 20 10C20 4.48 15.52 0 9.99 0ZM10 18C5.58 18 2 14.42 2 10C2 5.58 5.58 2 10 2C14.42 2 18 5.58 18 10C18 14.42 14.42 18 10 18ZM14.41 11.89C14.06 11.67 13.59 11.78 13.38 12.13C12.64 13.3 11.38 14 10 14C8.62 14 7.36 13.3 6.62 12.12C6.4 11.77 5.94 11.66 5.59 11.88C5.24 12.1 5.13 12.56 5.35 12.91C6.37 14.54 8.1 15.5 10 15.5C11.9 15.5 13.63 14.53 14.65 12.92C14.87 12.57 14.76 12.11 14.41 11.89Z"
    fill="#9B6109"
  />
</symbol>
<symbol
  id="icon-clock"
  viewBox="0 0 20 20"
  fill="none"
  xmlns="http://www.w3.org/2000/svg"
>
  <path
    d="M9.99 0C4.47 0 0 4.48 0 10C0 15.52 4.47 20 9.99 20C15.52 20 20 15.52 20 10C20 4.48 15.52 0 9.99 0ZM10 18C5.58 18 2 14.42 2 10C2 5.58 5.58 2 10 2C14.42 2 18 5.58 18 10C18 14.42 14.42 18 10 18ZM9.78 5H9.72C9.32 5 9 5.32 9 5.72V10.44C9 10.79 9.18 11.12 9.49 11.3L13.64 13.79C13.98 13.99 14.42 13.89 14.62 13.55C14.83 13.21 14.72 12.76 14.37 12.56L10.5 10.26V5.72C10.5 5.32 10.18 5 9.78 5Z"
    fill="#9B6109"
  />
</symbol>
<symbol
  id="icon-magazine"
  viewBox="0 0 18 20"
  fill="none"
  xmlns="http://www.w3.org/2000/svg"
>
  <path
    d="M16.5 1.5L15 0L13.5 1.5L12 0L10.5 1.5L9 0L7.5 1.5L6 0L4.5 1.5L3 0V14H0V17C0 18.66 1.34 20 3 20H15C16.66 20 18 18.66 18 17V0L16.5 1.5ZM12 18H3C2.45 18 2 17.55 2 17V16H12V18ZM16 17C16 17.55 15.55 18 15 18C14.45 18 14 17.55 14 17V14H5V3H16V17Z"
    fill="#9B6109"
  />
  <path d="M12 5H6V7H12V5Z" fill="#9B6109" />
  <path d="M15 5H13V7H15V5Z" fill="#9B6109" />
  <path d="M12 8H6V10H12V8Z" fill="#9B6109" />
  <path d="M15 8H13V10H15V8Z" fill="#9B6109" />
</symbol>
<symbol
  id="icon-mobile"
  viewBox="0 0 13 22"
  fill="none"
  xmlns="http://www.w3.org/2000/svg"
>
  <path
    d="M10.5 0H2.5C1.12 0 0 1.12 0 2.5V19.5C0 20.88 1.12 22 2.5 22H10.5C11.88 22 13 20.88 13 19.5V2.5C13 1.12 11.88 0 10.5 0ZM6.5 21C5.67 21 5 20.33 5 19.5C5 18.67 5.67 18 6.5 18C7.33 18 8 18.67 8 19.5C8 20.33 7.33 21 6.5 21ZM11 17H2V3H11V17Z"
    fill="#9B6109"
  />
</symbol>
<symbol
  id="icon-pen"
  viewBox="0 0 18 18"
  fill="none"
  xmlns="http://www.w3.org/2000/svg"
>
  <path
    d="M15.85 7.39L16.91 6.33C17.69 5.55 17.69 4.28 16.91 3.5L15.5 2.09C14.72 1.31 13.45 1.31 12.67 2.09L11.61 3.15L15.85 7.39ZM10.19 4.56L1.14 13.61C1.05 13.7 1 13.83 1 13.96V17.5C1 17.78 1.22 18 1.5 18H5.04C5.17 18 5.3 17.95 5.39 17.85L14.44 8.8L10.19 4.56ZM16 14.5C16 16.69 13.46 18 11 18C10.45 18 10 17.55 10 17C10 16.45 10.45 16 11 16C12.54 16 14 15.27 14 14.5C14 14.03 13.52 13.63 12.77 13.3L14.25 11.82C15.32 12.45 16 13.29 16 14.5ZM1.58 10.35C0.61 9.79 0 9.06 0 8C0 6.2 1.89 5.37 3.56 4.64C4.59 4.18 6 3.56 6 3C6 2.59 5.22 2 4 2C2.74 2 2.2 2.61 2.17 2.64C1.82 3.05 1.19 3.1 0.77 2.76C0.36 2.42 0.28 1.81 0.62 1.38C0.73 1.24 1.76 0 4 0C6.24 0 8 1.32 8 3C8 4.87 6.07 5.72 4.36 6.47C3.42 6.88 2 7.5 2 8C2 8.31 2.43 8.6 3.07 8.86L1.58 10.35Z"
    fill="#9B6109"
  />
</symbol>
<symbol
  id="icon-letters"
  viewBox="0 0 19 15"
  fill="none"
  xmlns="http://www.w3.org/2000/svg"
>
  <path
    d="M6 1.5C6 2.33 6.67 3 7.5 3H11V13.5C11 14.33 11.67 15 12.5 15C13.33 15 14 14.33 14 13.5V3H17.5C18.33 3 19 2.33 19 1.5C19 0.67 18.33 0 17.5 0H7.5C6.67 0 6 0.67 6 1.5ZM1.5 8H3V13.5C3 14.33 3.67 15 4.5 15C5.33 15 6 14.33 6 13.5V8H7.5C8.33 8 9 7.33 9 6.5C9 5.67 8.33 5 7.5 5H1.5C0.67 5 0 5.67 0 6.5C0 7.33 0.67 8 1.5 8Z"
    fill="#9B6109"
  />
</symbol>
<symbol
  id="icon-qrcode"
  viewBox="0 0 18 18"
  fill="none"
  xmlns="http://www.w3.org/2000/svg"
>
  <path
    d="M2 8H6C7.1 8 8 7.1 8 6V2C8 0.9 7.1 0 6 0H2C0.9 0 0 0.9 0 2V6C0 7.1 0.9 8 2 8ZM2 2H6V6H2V2Z"
    fill="#9B6109"
  />
  <path
    d="M2 18H6C7.1 18 8 17.1 8 16V12C8 10.9 7.1 10 6 10H2C0.9 10 0 10.9 0 12V16C0 17.1 0.9 18 2 18ZM2 12H6V16H2V12Z"
    fill="#9B6109"
  />
  <path
    d="M10 2V6C10 7.1 10.9 8 12 8H16C17.1 8 18 7.1 18 6V2C18 0.9 17.1 0 16 0H12C10.9 0 10 0.9 10 2ZM16 6H12V2H16V6Z"
    fill="#9B6109"
  />
  <path
    d="M18 17.5V16.5C18 16.22 17.78 16 17.5 16H16.5C16.22 16 16 16.22 16 16.5V17.5C16 17.78 16.22 18 16.5 18H17.5C17.78 18 18 17.78 18 17.5Z"
    fill="#9B6109"
  />
  <path
    d="M10 10.5V11.5C10 11.78 10.22 12 10.5 12H11.5C11.78 12 12 11.78 12 11.5V10.5C12 10.22 11.78 10 11.5 10H10.5C10.22 10 10 10.22 10 10.5Z"
    fill="#9B6109"
  />
  <path
    d="M13.5 12H12.5C12.22 12 12 12.22 12 12.5V13.5C12 13.78 12.22 14 12.5 14H13.5C13.78 14 14 13.78 14 13.5V12.5C14 12.22 13.78 12 13.5 12Z"
    fill="#9B6109"
  />
  <path
    d="M10 14.5V15.5C10 15.78 10.22 16 10.5 16H11.5C11.78 16 12 15.78 12 15.5V14.5C12 14.22 11.78 14 11.5 14H10.5C10.22 14 10 14.22 10 14.5Z"
    fill="#9B6109"
  />
  <path
    d="M12.5 18H13.5C13.78 18 14 17.78 14 17.5V16.5C14 16.22 13.78 16 13.5 16H12.5C12.22 16 12 16.22 12 16.5V17.5C12 17.78 12.22 18 12.5 18Z"
    fill="#9B6109"
  />
  <path
    d="M14.5 16H15.5C15.78 16 16 15.78 16 15.5V14.5C16 14.22 15.78 14 15.5 14H14.5C14.22 14 14 14.22 14 14.5V15.5C14 15.78 14.22 16 14.5 16Z"
    fill="#9B6109"
  />
  <path
    d="M15.5 10H14.5C14.22 10 14 10.22 14 10.5V11.5C14 11.78 14.22 12 14.5 12H15.5C15.78 12 16 11.78 16 11.5V10.5C16 10.22 15.78 10 15.5 10Z"
    fill="#9B6109"
  />
  <path
    d="M16.5 14H17.5C17.78 14 18 13.78 18 13.5V12.5C18 12.22 17.78 12 17.5 12H16.5C16.22 12 16 12.22 16 12.5V13.5C16 13.78 16.22 14 16.5 14Z"
    fill="#9B6109"
  />
</symbol>
<symbol
  id="icon-letter-rectangle"
  viewBox="0 0 22 22"
  fill="none"
  xmlns="http://www.w3.org/2000/svg"
>
  <path
    d="M22 5V1C22 0.45 21.55 0 21 0H17C16.45 0 16 0.45 16 1V2H6V1C6 0.45 5.55 0 5 0H1C0.45 0 0 0.45 0 1V5C0 5.55 0.45 6 1 6H2V16H1C0.45 16 0 16.45 0 17V21C0 21.55 0.45 22 1 22H5C5.55 22 6 21.55 6 21V20H16V21C16 21.55 16.45 22 17 22H21C21.55 22 22 21.55 22 21V17C22 16.45 21.55 16 21 16H20V6H21C21.55 6 22 5.55 22 5ZM2 2H4V4H2V2ZM4 20H2V18H4V20ZM16 18H6V17C6 16.45 5.55 16 5 16H4V6H5C5.55 6 6 5.55 6 5V4H16V5C16 5.55 16.45 6 17 6H18V16H17C16.45 16 16 16.45 16 17V18ZM20 20H18V18H20V20ZM18 4V2H20V4H18ZM11.94 6.65C11.79 6.26 11.41 6 10.99 6C10.57 6 10.19 6.26 10.05 6.65L7.28 13.98C7.09 14.47 7.45 15 7.98 15C8.3 15 8.58 14.8 8.69 14.5L9.24 13H12.73L13.29 14.51C13.4 14.8 13.68 15 14 15H14.01C14.54 15 14.9 14.47 14.72 13.98L11.94 6.65ZM9.69 11.74L11 7.91L12.3 11.74H9.69Z"
    fill="#9B6109"
  />
</symbol>
<symbol
  id="icon-info"
  viewBox="0 0 20 20"
  fill="none"
  xmlns="http://www.w3.org/2000/svg"
>
  <path
    d="M10 0C4.48 0 0 4.48 0 10C0 15.52 4.48 20 10 20C15.52 20 20 15.52 20 10C20 4.48 15.52 0 10 0ZM10 15C9.45 15 9 14.55 9 14V10C9 9.45 9.45 9 10 9C10.55 9 11 9.45 11 10V14C11 14.55 10.55 15 10 15ZM11 7H9V5H11V7Z"
    fill="#9B6109"
  />
</symbol>
<symbol
  id="icon-hosting"
  viewBox="0 0 18 18"
  fill="none"
  xmlns="http://www.w3.org/2000/svg"
>
  <path
    d="M16 12V16H2V12H16ZM17 10H1C0.45 10 0 10.45 0 11V17C0 17.55 0.45 18 1 18H17C17.55 18 18 17.55 18 17V11C18 10.45 17.55 10 17 10ZM4 15.5C3.18 15.5 2.5 14.83 2.5 14C2.5 13.17 3.18 12.5 4 12.5C4.82 12.5 5.5 13.17 5.5 14C5.5 14.83 4.83 15.5 4 15.5ZM16 2V6H2V2H16ZM17 0H1C0.45 0 0 0.45 0 1V7C0 7.55 0.45 8 1 8H17C17.55 8 18 7.55 18 7V1C18 0.45 17.55 0 17 0ZM4 5.5C3.18 5.5 2.5 4.83 2.5 4C2.5 3.17 3.18 2.5 4 2.5C4.82 2.5 5.5 3.18 5.5 4C5.5 4.82 4.83 5.5 4 5.5Z"
    fill="#9B6109"
  />
</symbol>
<symbol
  id="icon-domain"
  viewBox="0 0 20 18"
  fill="none"
  xmlns="http://www.w3.org/2000/svg"
>
  <path
    d="M10 4V0H0V18H20V4H10ZM4 16H2V14H4V16ZM4 12H2V10H4V12ZM4 8H2V6H4V8ZM4 4H2V2H4V4ZM8 16H6V14H8V16ZM8 12H6V10H8V12ZM8 8H6V6H8V8ZM8 4H6V2H8V4ZM18 16H10V14H12V12H10V10H12V8H10V6H18V16ZM16 8H14V10H16V8ZM16 12H14V14H16V12Z"
    fill="#9B6109"
  />
</symbol>
<symbol
  id="icon-like"
  viewBox="0 0 23 20"
  fill="none"
  xmlns="http://www.w3.org/2000/svg"
>
  <path
    d="M12.12 1.06003L6.58 6.60003C6.21 6.97003 6 7.48003 6 8.01003V18C6 19.1 6.9 20 8 20H17C17.8 20 18.52 19.52 18.84 18.79L22.1 11.18C22.94 9.20003 21.49 7.00003 19.34 7.00003H13.69L14.64 2.42003C14.74 1.92003 14.59 1.41003 14.23 1.05003C13.64 0.47003 12.7 0.47003 12.12 1.06003ZM2 20C3.1 20 4 19.1 4 18V10C4 8.90003 3.1 8.00003 2 8.00003C0.9 8.00003 0 8.90003 0 10V18C0 19.1 0.9 20 2 20Z"
    fill="#9B6109"
  />
</symbol>
<symbol id="icon-dollar" xmlns="http://www.w3.org/2000/svg" width="24" height="24" viewBox="0 0 24 24" fill="none">
  <path fill-rule="evenodd" clip-rule="evenodd" d="M13.2 2.22222C13.2 1.89807 13.0736 1.58719 12.8485 1.35798C12.6235 1.12877 12.3183 1 12 1C11.6817 1 11.3765 1.12877 11.1515 1.35798C10.9264 1.58719 10.8 1.89807 10.8 2.22222V3.44444C9.52696 3.44444 8.30606 3.95952 7.40589 4.87637C6.50571 5.79321 6 7.03672 6 8.33333C6 9.62995 6.50571 10.8735 7.40589 11.7903C8.30606 12.7071 9.52696 13.2222 10.8 13.2222V18.1111C10.3036 18.1114 9.81926 17.9548 9.41382 17.663C9.00839 17.3712 8.70176 16.9586 8.5362 16.4819C8.42607 16.1819 8.20472 15.9379 7.91977 15.8024C7.63482 15.667 7.30904 15.6508 7.01253 15.7575C6.71602 15.8642 6.47247 16.0851 6.33428 16.3728C6.19609 16.6605 6.1743 16.992 6.2736 17.2959C6.60446 18.2493 7.21743 19.0747 8.02809 19.6585C8.83874 20.2423 9.80718 20.5557 10.8 20.5556V21.7778C10.8 22.1019 10.9264 22.4128 11.1515 22.642C11.3765 22.8712 11.6817 23 12 23C12.3183 23 12.6235 22.8712 12.8485 22.642C13.0736 22.4128 13.2 22.1019 13.2 21.7778V20.5556C14.473 20.5556 15.6939 20.0405 16.5941 19.1236C17.4943 18.2068 18 16.9633 18 15.6667C18 14.3701 17.4943 13.1265 16.5941 12.2097C15.6939 11.2929 14.473 10.7778 13.2 10.7778V5.88889C13.6964 5.88864 14.1807 6.04519 14.5862 6.33698C14.9916 6.62876 15.2982 7.04143 15.4638 7.51811C15.5739 7.81812 15.7953 8.0621 16.0802 8.19757C16.3652 8.33305 16.691 8.34918 16.9875 8.24251C17.284 8.13584 17.5275 7.91488 17.6657 7.62717C17.8039 7.33947 17.8257 7.00801 17.7264 6.70411C17.3955 5.75071 16.7826 4.92526 15.9719 4.34147C15.1613 3.75768 14.1928 3.44428 13.2 3.44444V2.22222ZM10.8 5.88889C10.1635 5.88889 9.55303 6.14643 9.10294 6.60485C8.65286 7.06327 8.4 7.68503 8.4 8.33333C8.4 8.98164 8.65286 9.60339 9.10294 10.0618C9.55303 10.5202 10.1635 10.7778 10.8 10.7778V5.88889ZM13.2 13.2222V18.1111C13.8365 18.1111 14.447 17.8536 14.8971 17.3951C15.3471 16.9367 15.6 16.315 15.6 15.6667C15.6 15.0184 15.3471 14.3966 14.8971 13.9382C14.447 13.4798 13.8365 13.2222 13.2 13.2222Z" fill="#9B6109"/>
</symbol>
<symbol id="icon-happy-face" xmlns="http://www.w3.org/2000/svg" width="24" height="24" viewBox="0 0 24 24" fill="none">
  <path fill-rule="evenodd" clip-rule="evenodd" d="M22 12C22 9.34784 20.9464 6.8043 19.0711 4.92893C17.1957 3.05357 14.6522 2 12 2C9.34784 2 6.8043 3.05357 4.92893 4.92893C3.05357 6.8043 2 9.34784 2 12C2 14.6522 3.05357 17.1957 4.92893 19.0711C6.8043 20.9464 9.34784 22 12 22C14.6522 22 17.1957 20.9464 19.0711 19.0711C20.9464 17.1957 22 14.6522 22 12ZM16.9143 9.07429C16.9143 9.88143 16.2614 10.5357 15.4543 10.5371H15.4514C15.0712 10.5258 14.7102 10.367 14.445 10.0942C14.1798 9.82138 14.0312 9.45609 14.0307 9.07565C14.0301 8.69521 14.1777 8.32948 14.442 8.05592C14.7064 7.78235 15.0669 7.62243 15.4471 7.61H15.4514C16.2586 7.61 16.9143 8.26571 16.9143 9.07429ZM10.0129 9.07429C10.0129 9.88143 9.36 10.5357 8.55286 10.5371H8.54857C8.16831 10.5256 7.80745 10.3666 7.5424 10.0937C7.27736 9.82075 7.12894 9.45539 7.12857 9.07496C7.1282 8.69452 7.2759 8.32887 7.54041 8.05544C7.80493 7.782 8.16547 7.62225 8.54571 7.61H8.54857C9.35714 7.61 10.0129 8.26571 10.0129 9.07429ZM7.98429 13.0857C7.95761 12.9685 7.90754 12.8579 7.83708 12.7605C7.76661 12.663 7.6772 12.5809 7.5742 12.5189C7.47121 12.4569 7.35675 12.4163 7.23769 12.3996C7.11864 12.3829 6.99743 12.3904 6.88135 12.4217C6.76527 12.453 6.65671 12.5074 6.56216 12.5816C6.46762 12.6559 6.38905 12.7485 6.33115 12.8539C6.27326 12.9592 6.23725 13.0752 6.22527 13.1948C6.21328 13.3144 6.22558 13.4352 6.26143 13.55C6.60225 14.8119 7.34934 15.9264 8.38716 16.7211C9.42498 17.5158 10.6957 17.9465 12.0029 17.9465C13.31 17.9465 14.5807 17.5158 15.6186 16.7211C16.6564 15.9264 17.4035 14.8119 17.7443 13.55C17.7753 13.4366 17.7836 13.3182 17.7688 13.2016C17.754 13.085 17.7162 12.9724 17.6578 12.8704C17.5993 12.7684 17.5213 12.679 17.4282 12.6072C17.3351 12.5354 17.2288 12.4828 17.1152 12.4522C17.0017 12.4216 16.8833 12.4138 16.7667 12.4291C16.6502 12.4444 16.5378 12.4826 16.436 12.5415C16.3343 12.6003 16.2451 12.6787 16.1737 12.7721C16.1024 12.8655 16.0501 12.9721 16.02 13.0857C15.7813 13.9684 15.2585 14.748 14.5324 15.3038C13.8063 15.8596 12.9173 16.1608 12.0029 16.1608C11.0884 16.1608 10.1994 15.8596 9.47334 15.3038C8.74723 14.748 8.22299 13.9684 7.98429 13.0857Z" fill="#9B6109"/>
</symbol>
<symbol id="icon-time" xmlns="http://www.w3.org/2000/svg" width="24" height="24" viewBox="0 0 24 24" fill="none">
  <path d="M12 2C17.523 2 22 6.477 22 12C22 17.523 17.523 22 12 22C6.477 22 2 17.523 2 12C2 6.477 6.477 2 12 2ZM12 6C11.7348 6 11.4804 6.10536 11.2929 6.29289C11.1054 6.48043 11 6.73478 11 7V12C11.0001 12.2652 11.1055 12.5195 11.293 12.707L14.293 15.707C14.4816 15.8892 14.7342 15.99 14.9964 15.9877C15.2586 15.9854 15.5094 15.8802 15.6948 15.6948C15.8802 15.5094 15.9854 15.2586 15.9877 14.9964C15.99 14.7342 15.8892 14.4816 15.707 14.293L13 11.586V7C13 6.73478 12.8946 6.48043 12.7071 6.29289C12.5196 6.10536 12.2652 6 12 6Z" fill="#9B6109"/>
</symbol>
<symbol id="icon-qr-code" xmlns="http://www.w3.org/2000/svg" width="24" height="24" viewBox="0 0 24 24" fill="none">
  <g clip-path="url(#clip0_574_4026)">
    <path d="M5 11H9C10.1 11 11 10.1 11 9V5C11 3.9 10.1 3 9 3H5C3.9 3 3 3.9 3 5V9C3 10.1 3.9 11 5 11ZM5 5H9V9H5V5Z" fill="#9B6109"/>
    <path d="M5 5H9V9H5V5Z" fill="#9B6109"/>
    <path d="M5 21H9C10.1 21 11 20.1 11 19V15C11 13.9 10.1 13 9 13H5C3.9 13 3 13.9 3 15V19C3 20.1 3.9 21 5 21ZM5 15H9V19H5V15Z" fill="#9B6109"/>
    <path d="M5 15H9V19H5V15Z" fill="#9B6109"/>
    <path d="M13 5V9C13 10.1 13.9 11 15 11H19C20.1 11 21 10.1 21 9V5C21 3.9 20.1 3 19 3H15C13.9 3 13 3.9 13 5ZM19 9H15V5H19V9Z" fill="#9B6109"/>
    <path d="M19 9H15V5H19V9Z" fill="#9B6109"/>
    <path d="M21 20.5V19.5C21 19.22 20.78 19 20.5 19H19.5C19.22 19 19 19.22 19 19.5V20.5C19 20.78 19.22 21 19.5 21H20.5C20.78 21 21 20.78 21 20.5Z" fill="#9B6109"/>
    <path d="M13 13.5V14.5C13 14.78 13.22 15 13.5 15H14.5C14.78 15 15 14.78 15 14.5V13.5C15 13.22 14.78 13 14.5 13H13.5C13.22 13 13 13.22 13 13.5Z" fill="#9B6109"/>
    <path d="M16.5 15H15.5C15.22 15 15 15.22 15 15.5V16.5C15 16.78 15.22 17 15.5 17H16.5C16.78 17 17 16.78 17 16.5V15.5C17 15.22 16.78 15 16.5 15Z" fill="#9B6109"/>
    <path d="M13 17.5V18.5C13 18.78 13.22 19 13.5 19H14.5C14.78 19 15 18.78 15 18.5V17.5C15 17.22 14.78 17 14.5 17H13.5C13.22 17 13 17.22 13 17.5Z" fill="#9B6109"/>
    <path d="M15.5 21H16.5C16.78 21 17 20.78 17 20.5V19.5C17 19.22 16.78 19 16.5 19H15.5C15.22 19 15 19.22 15 19.5V20.5C15 20.78 15.22 21 15.5 21Z" fill="#9B6109"/>
    <path d="M17.5 19H18.5C18.78 19 19 18.78 19 18.5V17.5C19 17.22 18.78 17 18.5 17H17.5C17.22 17 17 17.22 17 17.5V18.5C17 18.78 17.22 19 17.5 19Z" fill="#9B6109"/>
    <path d="M18.5 13H17.5C17.22 13 17 13.22 17 13.5V14.5C17 14.78 17.22 15 17.5 15H18.5C18.78 15 19 14.78 19 14.5V13.5C19 13.22 18.78 13 18.5 13Z" fill="#9B6109"/>
    <path d="M19.5 17H20.5C20.78 17 21 16.78 21 16.5V15.5C21 15.22 20.78 15 20.5 15H19.5C19.22 15 19 15.22 19 15.5V16.5C19 16.78 19.22 17 19.5 17Z" fill="#9B6109"/>
  </g>
  <defs>
    <clipPath id="clip0_574_4026">
      <rect width="24" height="24" fill="white"/>
    </clipPath>
  </defs>
</symbol>
<symbol id="icon-stars" xmlns="http://www.w3.org/2000/svg" width="24" height="24" viewBox="0 0 24 24" fill="none">
  <path d="M21.738 16.1304C21.7431 16.349 21.6763 16.5633 21.548 16.7404C21.4213 16.921 21.2385 17.0546 21.028 17.1204L19.318 17.6904C18.7913 17.8653 18.3121 18.1597 17.918 18.5504C17.5243 18.9422 17.2295 19.4221 17.058 19.9504L16.458 21.6504C16.3955 21.8545 16.2693 22.0332 16.098 22.1604C15.9151 22.2846 15.6991 22.3508 15.478 22.3504C15.2561 22.3599 15.0374 22.2953 14.8564 22.1667C14.6753 22.0381 14.5422 21.853 14.478 21.6404L13.908 19.9304C13.7365 19.4021 13.4417 18.9222 13.048 18.5304C12.6506 18.1415 12.1727 17.8445 11.648 17.6604L9.938 17.1004C9.73556 17.0294 9.55829 16.9008 9.428 16.7304C9.29671 16.5498 9.22346 16.3336 9.218 16.1104C9.20852 15.8886 9.27315 15.6698 9.40171 15.4888C9.53026 15.3077 9.71542 15.1746 9.928 15.1104L11.648 14.5404C12.1814 14.368 12.6663 14.0715 13.0627 13.6751C13.459 13.2787 13.7556 12.7938 13.928 12.2604L14.498 10.5704C14.5563 10.3625 14.6803 10.179 14.8516 10.0474C15.0228 9.9158 15.2321 9.84319 15.448 9.84041C15.663 9.84041 15.874 9.89941 16.058 10.0104C16.24 10.1354 16.38 10.3134 16.458 10.5204L17.038 12.2604C17.2104 12.7938 17.507 13.2787 17.9033 13.6751C18.2997 14.0715 18.7846 14.368 19.318 14.5404L21.018 15.1404C21.2248 15.2082 21.4039 15.3416 21.528 15.5204C21.6635 15.695 21.7373 15.9095 21.738 16.1304ZM11.739 9.77041C11.7375 9.96644 11.6784 10.1577 11.569 10.3204C11.4508 10.4814 11.2871 10.6033 11.099 10.6704L9.839 11.0904C9.486 11.2124 9.166 11.4104 8.899 11.6704C8.638 11.9366 8.43983 12.2577 8.319 12.6104L7.889 13.8504C7.82803 14.0417 7.70483 14.2072 7.539 14.3204C7.3746 14.4352 7.17949 14.4979 6.979 14.5004C6.77402 14.497 6.57503 14.4307 6.409 14.3104C6.25172 14.1908 6.13341 14.0272 6.069 13.8404L5.659 12.5904C5.5387 12.2404 5.34036 11.9224 5.079 11.6604C4.8229 11.3917 4.50297 11.1922 4.149 11.0804L2.899 10.6604C2.70504 10.5994 2.53643 10.4764 2.419 10.3104C2.3394 10.1857 2.28845 10.045 2.26982 9.89823C2.25118 9.7515 2.26533 9.60246 2.31124 9.46185C2.35716 9.32125 2.43369 9.19258 2.53532 9.08511C2.63696 8.97765 2.76117 8.89408 2.899 8.84041L4.149 8.43041C4.5027 8.30691 4.82397 8.10519 5.08888 7.84028C5.35378 7.57537 5.5555 7.2541 5.679 6.90041L6.089 5.67041C6.14794 5.48608 6.2591 5.32281 6.409 5.20041C6.56829 5.08038 6.75983 5.01073 6.959 5.00041C7.16079 4.99498 7.3595 5.05076 7.529 5.16041C7.69581 5.27301 7.82477 5.43333 7.899 5.62041L8.319 6.90041C8.4425 7.2541 8.64422 7.57537 8.90912 7.84028C9.17403 8.10519 9.4953 8.30691 9.849 8.43041L11.099 8.86041C11.286 8.92462 11.4473 9.04735 11.559 9.21041C11.6774 9.37301 11.7405 9.56929 11.739 9.77041ZM17.528 4.41041C17.5189 4.59274 17.4602 4.76911 17.358 4.92041C17.2539 5.06301 17.1066 5.16822 16.938 5.22041L16.318 5.43041C16.1976 5.47197 16.0882 5.54039 15.9981 5.63048C15.908 5.72057 15.8396 5.82997 15.798 5.95041L15.578 6.58041C15.5176 6.73381 15.4175 6.86841 15.288 6.97041C15.1406 7.08851 14.9569 7.15209 14.768 7.15041C14.5951 7.13968 14.4272 7.08828 14.278 7.00041C14.1285 6.89026 14.0167 6.73657 13.958 6.56041L13.748 5.94041C13.7119 5.81744 13.6427 5.70675 13.548 5.62041C13.4598 5.5279 13.3498 5.45911 13.228 5.42041L12.608 5.22041C12.443 5.15608 12.2981 5.0491 12.188 4.91041C12.0843 4.76053 12.0285 4.58269 12.028 4.40041C12.0338 4.21748 12.0929 4.04023 12.198 3.89041C12.3057 3.75155 12.4517 3.64726 12.618 3.59041L13.228 3.39041C13.3512 3.34838 13.4638 3.28015 13.558 3.19041C13.6477 3.09616 13.716 2.98357 13.758 2.86041L13.968 2.24041C14.028 2.08541 14.123 1.94841 14.248 1.84041C14.3915 1.73452 14.5606 1.66892 14.738 1.65041C14.9267 1.64933 15.1114 1.70508 15.268 1.81041C15.409 1.91646 15.5194 2.05791 15.588 2.22041L15.798 2.86041C15.84 2.98357 15.9083 3.09616 15.998 3.19041C16.091 3.27678 16.1996 3.34465 16.318 3.39041L16.948 3.60041C17.1082 3.66344 17.2494 3.76678 17.358 3.90041C17.4671 4.0482 17.5266 4.22672 17.528 4.41041Z" fill="#9B6109"/>
</symbol>
<symbol id="icon-settings" xmlns="http://www.w3.org/2000/svg" width="24" height="24" viewBox="0 0 24 24" fill="none">
  <path fill-rule="evenodd" clip-rule="evenodd" d="M14.279 2.152C13.909 2 13.439 2 12.5 2C11.561 2 11.092 2 10.721 2.152C10.4769 2.25175 10.2549 2.39878 10.0678 2.58465C9.88078 2.77051 9.73232 2.99154 9.631 3.235C9.537 3.458 9.501 3.719 9.486 4.098C9.47887 4.3725 9.40207 4.64068 9.26283 4.87736C9.12359 5.11403 8.92648 5.31142 8.69 5.451C8.44875 5.5851 8.17755 5.65615 7.90153 5.65754C7.62551 5.65894 7.3536 5.59065 7.111 5.459C6.773 5.281 6.528 5.183 6.286 5.151C5.75659 5.08192 5.22127 5.2242 4.796 5.547C4.478 5.789 4.243 6.193 3.774 7C3.304 7.807 3.07 8.21 3.017 8.605C2.947 9.131 3.091 9.663 3.417 10.084C3.565 10.276 3.774 10.437 4.097 10.639C4.574 10.936 4.88 11.442 4.88 12C4.88 12.558 4.574 13.064 4.098 13.36C3.774 13.563 3.565 13.724 3.416 13.916C3.25557 14.1242 3.13775 14.362 3.06929 14.6158C3.00082 14.8696 2.98306 15.1343 3.017 15.395C3.07 15.789 3.304 16.193 3.774 17C4.244 17.807 4.478 18.21 4.796 18.453C5.22 18.776 5.756 18.918 6.286 18.849C6.528 18.817 6.773 18.719 7.111 18.541C7.35373 18.4092 7.62582 18.3408 7.90203 18.3422C8.17824 18.3436 8.44962 18.4147 8.691 18.549C9.177 18.829 9.465 19.344 9.486 19.902C9.501 20.282 9.537 20.542 9.631 20.765C9.835 21.255 10.227 21.645 10.721 21.848C11.091 22 11.561 22 12.5 22C13.439 22 13.909 22 14.279 21.848C14.5231 21.7483 14.7451 21.6012 14.9322 21.4154C15.1192 21.2295 15.2677 21.0085 15.369 20.765C15.463 20.542 15.499 20.282 15.514 19.902C15.534 19.344 15.823 18.828 16.31 18.549C16.5513 18.4149 16.8225 18.3439 17.0985 18.3425C17.3745 18.3411 17.6464 18.4093 17.889 18.541C18.227 18.719 18.472 18.817 18.714 18.849C19.244 18.919 19.78 18.776 20.204 18.453C20.522 18.211 20.757 17.807 21.226 17C21.696 16.193 21.93 15.79 21.983 15.395C22.0168 15.1343 21.9989 14.8695 21.9302 14.6157C21.8616 14.3619 21.7436 14.1241 21.583 13.916C21.435 13.724 21.226 13.563 20.903 13.361C20.426 13.064 20.12 12.558 20.12 12C20.12 11.442 20.426 10.936 20.902 10.64C21.226 10.437 21.435 10.276 21.584 10.084C21.7444 9.87579 21.8623 9.63799 21.9307 9.38422C21.9992 9.13044 22.0169 8.86565 21.983 8.605C21.93 8.211 21.696 7.807 21.226 7C20.756 6.193 20.522 5.79 20.204 5.547C19.7787 5.2242 19.2434 5.08192 18.714 5.151C18.472 5.183 18.227 5.281 17.889 5.459C17.6463 5.59083 17.3742 5.65922 17.098 5.65782C16.8218 5.65642 16.5504 5.58528 16.309 5.451C16.0727 5.3113 15.8758 5.11385 15.7367 4.87719C15.5977 4.64052 15.521 4.37241 15.514 4.098C15.499 3.718 15.463 3.458 15.369 3.235C15.2677 2.99154 15.1192 2.77051 14.9322 2.58465C14.7451 2.39878 14.5231 2.25175 14.279 2.152ZM12.5 15C14.17 15 15.523 13.657 15.523 12C15.523 10.343 14.169 9 12.5 9C10.831 9 9.477 10.343 9.477 12C9.477 13.657 10.831 15 12.5 15Z" fill="#9B6109"/>
</symbol>
<symbol id="icon-handshake" xmlns="http://www.w3.org/2000/svg" width="24" height="24" viewBox="0 0 24 24" fill="none">
  <path d="M12.1214 5.89972L8.66428 8.69972C8.08928 9.16401 7.97857 9.99972 8.41428 10.5961C8.875 11.2319 9.77143 11.3569 10.3893 10.8747L13.9357 8.11758C14.1857 7.92472 14.5429 7.96758 14.7393 8.21758C14.9357 8.46758 14.8893 8.82472 14.6393 9.02115L13.8929 9.59972L18.8571 14.1711V7.42829H18.8321L18.6929 7.33901L16.1 5.67829C15.5536 5.32829 14.9143 5.14258 14.2643 5.14258C13.4857 5.14258 12.7286 5.41044 12.1214 5.89972ZM12.9357 10.3426L11.0893 11.7783C9.96428 12.6569 8.33214 12.4283 7.48928 11.2712C6.69643 10.1819 6.89643 8.66044 7.94285 7.81401L10.9143 5.41044C10.5 5.23544 10.0536 5.14615 9.6 5.14615C8.92857 5.14258 8.275 5.34258 7.71428 5.71401L5.14286 7.42829V15.4283H6.15L9.41428 18.4069C10.1143 19.0462 11.1964 18.9962 11.8357 18.2961C12.0321 18.0783 12.1643 17.8247 12.2321 17.5604L12.8393 18.1176C13.5357 18.7569 14.6214 18.7104 15.2607 18.014C15.4214 17.839 15.5393 17.6354 15.6143 17.4247C16.3071 17.889 17.25 17.7926 17.8321 17.1569C18.4714 16.4604 18.425 15.3747 17.7286 14.7354L12.9357 10.3426ZM1.14285 7.42829C0.828569 7.42829 0.571426 7.68544 0.571426 7.99972V15.4283C0.571426 16.0604 1.08214 16.5711 1.71428 16.5711H2.85714C3.48928 16.5711 4 16.0604 4 15.4283V7.42829H1.14285ZM2.28571 14.2854C2.43726 14.2854 2.58261 14.3456 2.68977 14.4528C2.79694 14.56 2.85714 14.7053 2.85714 14.8569C2.85714 15.0084 2.79694 15.1538 2.68977 15.2609C2.58261 15.3681 2.43726 15.4283 2.28571 15.4283C2.13416 15.4283 1.98881 15.3681 1.88165 15.2609C1.77449 15.1538 1.71428 15.0084 1.71428 14.8569C1.71428 14.7053 1.77449 14.56 1.88165 14.4528C1.98881 14.3456 2.13416 14.2854 2.28571 14.2854ZM20 7.42829V15.4283C20 16.0604 20.5107 16.5711 21.1429 16.5711H22.2857C22.9179 16.5711 23.4286 16.0604 23.4286 15.4283V7.99972C23.4286 7.68544 23.1714 7.42829 22.8571 7.42829H20ZM21.1429 14.8569C21.1429 14.7053 21.2031 14.56 21.3102 14.4528C21.4174 14.3456 21.5627 14.2854 21.7143 14.2854C21.8658 14.2854 22.0112 14.3456 22.1183 14.4528C22.2255 14.56 22.2857 14.7053 22.2857 14.8569C22.2857 15.0084 22.2255 15.1538 22.1183 15.2609C22.0112 15.3681 21.8658 15.4283 21.7143 15.4283C21.5627 15.4283 21.4174 15.3681 21.3102 15.2609C21.2031 15.1538 21.1429 15.0084 21.1429 14.8569Z" fill="#9B6109"/>
</symbol>
<symbol id="icon-whatsapp" viewBox="0 0 32 32">
<path fill="#9b6109" style="fill: var(--color1, #9b6109)" d="M16.002 0c8.837 0 16 7.163 16 16s-7.163 16-16 16c-2.828 0.005-5.605-0.744-8.048-2.168l-7.946 2.168 2.163-7.949c-1.426-2.443-2.175-5.222-2.17-8.051 0-8.837 7.163-16 16-16zM10.549 8.48l-0.32 0.013c-0.207 0.014-0.409 0.069-0.595 0.16-0.173 0.098-0.332 0.221-0.47 0.365-0.192 0.181-0.301 0.338-0.418 0.49-0.592 0.769-0.91 1.714-0.906 2.685 0.003 0.784 0.208 1.547 0.528 2.261 0.654 1.443 1.731 2.971 3.152 4.387 0.342 0.341 0.678 0.683 1.040 1.002 1.765 1.554 3.869 2.675 6.144 3.274l0.909 0.139c0.296 0.016 0.592-0.006 0.89-0.021 0.466-0.025 0.921-0.151 1.333-0.37 0.209-0.108 0.414-0.226 0.613-0.352 0 0 0.068-0.046 0.2-0.144 0.216-0.16 0.349-0.274 0.528-0.461 0.134-0.139 0.246-0.3 0.336-0.483 0.125-0.261 0.25-0.758 0.301-1.173 0.038-0.317 0.027-0.49 0.022-0.597-0.006-0.171-0.149-0.349-0.304-0.424l-0.931-0.418c0 0-1.392-0.606-2.243-0.994-0.089-0.039-0.184-0.061-0.282-0.066-0.109-0.012-0.22 0.001-0.324 0.036s-0.2 0.092-0.28 0.167c-0.008-0.003-0.115 0.088-1.272 1.49-0.066 0.089-0.158 0.157-0.263 0.194s-0.218 0.042-0.326 0.014c-0.104-0.028-0.206-0.063-0.306-0.106-0.198-0.083-0.267-0.115-0.403-0.173-0.919-0.4-1.769-0.942-2.52-1.605-0.202-0.176-0.389-0.368-0.581-0.554-0.629-0.603-1.178-1.285-1.632-2.029l-0.094-0.152c-0.067-0.103-0.122-0.213-0.163-0.328-0.061-0.235 0.098-0.424 0.098-0.424s0.389-0.426 0.57-0.656c0.176-0.224 0.325-0.442 0.421-0.597 0.189-0.304 0.248-0.616 0.149-0.858-0.448-1.094-0.911-2.183-1.389-3.266-0.094-0.214-0.374-0.368-0.629-0.398-0.086-0.011-0.173-0.019-0.259-0.026-0.215-0.012-0.43-0.010-0.645 0.006l0.323-0.011z"></path>
</symbol>
<symbol id="icon-person-support" viewBox="0 0 32 32">
<path fill="#9b6109" style="fill: var(--color1, #9b6109)" d="M13.905 20.345l-0.007-0.016c-0.138-0.033-0.275-0.068-0.411-0.107l-0.010-0.003c-1.304-0.375-2.508-1.035-3.524-1.933-1.118-0.987-1.979-2.232-2.505-3.627s-0.704-2.898-0.517-4.378 0.734-2.891 1.592-4.111c0.858-1.22 2.001-2.211 3.33-2.888s2.803-1.018 4.295-0.994c1.491 0.024 2.954 0.412 4.261 1.131s2.418 1.746 3.236 2.993c0.818 1.247 1.319 2.675 1.459 4.16 0.045 0.472-0.343 0.857-0.817 0.857-0.473 0-0.851-0.385-0.906-0.856-0.151-1.299-0.643-2.535-1.425-3.584s-1.827-1.872-3.029-2.387c-1.202-0.515-2.519-0.704-3.817-0.546s-2.532 0.654-3.577 1.441c-1.045 0.787-1.863 1.835-2.373 3.040s-0.692 2.522-0.529 3.82c0.163 1.298 0.666 2.529 1.457 3.57s1.844 1.855 3.051 2.359l0.046 0.019c0.229 0.094 0.463 0.176 0.704 0.248 0.202-0.489 0.568-0.892 1.034-1.142s1.005-0.329 1.524-0.226c0.519 0.103 0.986 0.383 1.321 0.792s0.519 0.922 0.518 1.451c0.001 0.525-0.18 1.035-0.511 1.443s-0.793 0.689-1.307 0.797-1.050 0.035-1.517-0.206c-0.467-0.241-0.836-0.635-1.046-1.117zM12.778 21.799c-2.030-0.631-3.83-1.845-5.177-3.49-0.835 0.098-1.604 0.499-2.163 1.126s-0.867 1.439-0.867 2.279v0.817c0 4.249 4.811 7.183 11.429 7.183s11.429-3.095 11.429-7.183v-0.817c0-0.909-0.361-1.781-1.004-2.424s-1.515-1.004-2.424-1.004h-4.166c0.27 0.903 0.212 1.872-0.163 2.736s-1.043 1.569-1.887 1.989c-0.843 0.42-1.808 0.529-2.724 0.307s-1.724-0.76-2.282-1.519zM21.714 11.428c0-1.728-0.766-3.277-1.978-4.325-0.608-0.525-1.321-0.915-2.090-1.146s-1.579-0.297-2.376-0.194c-0.797 0.103-1.563 0.373-2.248 0.793s-1.275 0.979-1.729 1.641c-0.455 0.662-0.764 1.413-0.909 2.204s-0.121 1.602 0.069 2.383c0.19 0.781 0.543 1.512 1.035 2.147s1.113 1.159 1.821 1.538c0.736-0.67 1.696-1.041 2.691-1.041s1.956 0.371 2.693 1.041c0.913-0.488 1.677-1.214 2.209-2.102s0.813-1.904 0.813-2.939z"></path>
</symbol>
<symbol id="icon-frame-13" viewBox="0 0 32 32">
<path fill="#fff4e2" style="fill: var(--color2, #fff4e2)" d="M16 0.4c8.616 0 15.6 6.984 15.6 15.6s-6.984 15.6-15.6 15.6c-8.616 0-15.6-6.984-15.6-15.6s6.984-15.6 15.6-15.6z"></path>
<path fill="none" stroke="#fadbae" style="stroke: var(--color3, #fadbae)" stroke-linejoin="miter" stroke-linecap="butt" stroke-miterlimit="4" stroke-width="0.8" d="M16 0.4c8.616 0 15.6 6.984 15.6 15.6s-6.984 15.6-15.6 15.6c-8.616 0-15.6-6.984-15.6-15.6s6.984-15.6 15.6-15.6z"></path>
<path fill="none" stroke="#9b6109" style="stroke: var(--color1, #9b6109)" stroke-linejoin="round" stroke-linecap="round" stroke-miterlimit="4" stroke-width="1.6" d="M16.8 10.4h6.4M16.8 13.6h4M16.8 18.4h6.4M16.8 21.6h4M8.8 10.4c0-0.212 0.084-0.416 0.234-0.566s0.354-0.234 0.566-0.234h3.2c0.212 0 0.416 0.084 0.566 0.234s0.234 0.354 0.234 0.566v3.2c0 0.212-0.084 0.416-0.234 0.566s-0.354 0.234-0.566 0.234h-3.2c-0.212 0-0.416-0.084-0.566-0.234s-0.234-0.354-0.234-0.566v-3.2zM8.8 18.4c0-0.212 0.084-0.416 0.234-0.566s0.354-0.234 0.566-0.234h3.2c0.212 0 0.416 0.084 0.566 0.234s0.234 0.354 0.234 0.566v3.2c0 0.212-0.084 0.416-0.234 0.566s-0.354 0.234-0.566 0.234h-3.2c-0.212 0-0.416-0.084-0.566-0.234s-0.234-0.354-0.234-0.566v-3.2z"></path>
</symbol>
<symbol id="icon-map" viewBox="0 0 32 32">
<path fill="#9b6109" style="fill: var(--color1, #9b6109)" d="M16 29.333c-1.822 0-3.544-0.35-5.167-1.051s-3.039-1.656-4.249-2.867c-1.211-1.211-2.166-2.627-2.867-4.249s-1.051-3.344-1.051-5.167c0-1.844 0.35-3.572 1.051-5.183s1.656-3.022 2.867-4.233c1.211-1.212 2.627-2.167 4.249-2.867s3.344-1.050 5.167-1.051c1.844 0 3.572 0.35 5.184 1.051s3.022 1.656 4.232 2.867c1.21 1.211 2.165 2.622 2.867 4.233s1.052 3.339 1.051 5.183c0 1.822-0.35 3.544-1.051 5.167s-1.656 3.039-2.867 4.251c-1.211 1.212-2.622 2.167-4.233 2.867s-3.339 1.049-5.183 1.049zM16 26.6c0.578-0.8 1.078-1.633 1.5-2.5s0.767-1.789 1.033-2.767h-5.067c0.267 0.978 0.611 1.9 1.033 2.767s0.922 1.7 1.5 2.5zM12.533 26.067c-0.4-0.733-0.75-1.495-1.049-2.284s-0.55-1.606-0.751-2.449h-3.933c0.644 1.111 1.45 2.078 2.417 2.9s2.072 1.433 3.316 1.833zM19.467 26.067c1.244-0.4 2.35-1.011 3.317-1.833s1.772-1.789 2.416-2.9h-3.933c-0.2 0.844-0.45 1.661-0.749 2.451s-0.65 1.55-1.051 2.283zM5.667 18.667h4.533c-0.067-0.444-0.116-0.883-0.149-1.316s-0.050-0.883-0.051-1.351c-0.001-0.468 0.016-0.917 0.051-1.349s0.084-0.871 0.149-1.317h-4.533c-0.111 0.444-0.194 0.884-0.249 1.317s-0.083 0.884-0.084 1.349c-0.001 0.466 0.027 0.916 0.084 1.351s0.14 0.873 0.249 1.316zM12.867 18.667h6.267c0.067-0.444 0.117-0.883 0.151-1.316s0.050-0.883 0.049-1.351c-0.001-0.468-0.018-0.917-0.051-1.349s-0.083-0.871-0.149-1.317h-6.267c-0.067 0.444-0.116 0.884-0.149 1.317s-0.050 0.884-0.051 1.349c-0.001 0.466 0.016 0.916 0.051 1.351s0.084 0.873 0.149 1.316zM21.8 18.667h4.533c0.111-0.444 0.195-0.883 0.251-1.316s0.084-0.883 0.083-1.351c-0.001-0.468-0.028-0.917-0.083-1.349s-0.138-0.871-0.251-1.317h-4.533c0.067 0.444 0.117 0.884 0.151 1.317s0.050 0.884 0.049 1.349c-0.001 0.466-0.018 0.916-0.051 1.351s-0.083 0.873-0.149 1.316zM21.267 10.667h3.933c-0.644-1.111-1.45-2.078-2.416-2.9s-2.072-1.433-3.317-1.833c0.4 0.733 0.75 1.495 1.051 2.284s0.55 1.606 0.749 2.449zM13.467 10.667h5.067c-0.267-0.978-0.611-1.9-1.033-2.767s-0.922-1.7-1.5-2.5c-0.578 0.8-1.078 1.633-1.5 2.5s-0.767 1.789-1.033 2.767zM6.8 10.667h3.933c0.2-0.844 0.45-1.661 0.751-2.451s0.65-1.55 1.049-2.283c-1.244 0.4-2.35 1.011-3.317 1.833s-1.772 1.789-2.416 2.9z"></path>
</symbol>
<symbol id="icon-chain" viewBox="0 0 32 32">
<path fill="#9b6109" style="fill: var(--color1, #9b6109)" d="M19.858 6.263c0.386-0.386 0.844-0.692 1.349-0.901s1.045-0.316 1.591-0.316 1.087 0.108 1.591 0.316c0.505 0.209 0.963 0.515 1.349 0.901s0.692 0.844 0.901 1.349c0.209 0.504 0.316 1.045 0.316 1.591s-0.107 1.087-0.316 1.591c-0.209 0.504-0.515 0.963-0.901 1.349l-1.3 1.296c-0.273 0.283-0.424 0.662-0.421 1.055s0.162 0.769 0.44 1.047c0.278 0.278 0.655 0.435 1.048 0.439s0.772-0.148 1.055-0.421l1.298-1.296c1.289-1.353 1.998-3.156 1.975-5.024s-0.775-3.654-2.096-4.975c-1.321-1.321-3.107-2.074-4.975-2.096s-3.672 0.686-5.024 1.976l-5.302 5.296c-1.341 1.343-2.094 3.162-2.094 5.060s0.753 3.717 2.094 5.060c0.283 0.273 0.662 0.425 1.055 0.421s0.77-0.161 1.048-0.439c0.278-0.278 0.436-0.654 0.44-1.047s-0.147-0.772-0.421-1.055c-0.779-0.78-1.217-1.837-1.217-2.94s0.438-2.16 1.217-2.94l5.3-5.296zM19.558 12.435c-0.284-0.272-0.663-0.423-1.057-0.418s-0.769 0.164-1.047 0.443c-0.277 0.279-0.434 0.656-0.436 1.049s0.151 0.772 0.425 1.054c1.632 1.62 1.636 4.26 0.008 5.884l-5.308 5.294c-0.387 0.386-0.845 0.692-1.35 0.901s-1.046 0.316-1.592 0.316c-0.546-0-1.087-0.108-1.592-0.318s-0.963-0.516-1.349-0.903c-0.78-0.781-1.217-1.839-1.217-2.943s0.44-2.161 1.221-2.941l1.294-1.294c0.265-0.284 0.409-0.66 0.402-1.049s-0.164-0.759-0.439-1.034-0.646-0.432-1.034-0.439c-0.389-0.007-0.765 0.137-1.049 0.402l-1.296 1.294c-1.344 1.342-2.099 3.163-2.1 5.062s0.752 3.721 2.094 5.064 3.163 2.099 5.062 2.1c1.899 0.001 3.721-0.752 5.064-2.094l5.308-5.294c0.667-0.665 1.195-1.456 1.556-2.326s0.545-1.803 0.544-2.745c-0.001-0.942-0.189-1.874-0.551-2.743s-0.893-1.658-1.562-2.322h0.002z"></path>
</symbol>
<symbol id="icon-qr_code" viewBox="0 0 32 32">
<path fill="#9b6109" style="fill: var(--color1, #9b6109)" d="M6.667 14.667h5.333c1.467 0 2.667-1.2 2.667-2.667v-5.333c0-1.467-1.2-2.667-2.667-2.667h-5.333c-1.467 0-2.667 1.2-2.667 2.667v5.333c0 1.467 1.2 2.667 2.667 2.667zM6.667 6.667h5.333v5.333h-5.333v-5.333z"></path>
<path fill="#9b6109" style="fill: var(--color1, #9b6109)" d="M6.667 6.667h5.333v5.333h-5.333v-5.333z"></path>
<path fill="#9b6109" style="fill: var(--color1, #9b6109)" d="M6.667 28h5.333c1.467 0 2.667-1.2 2.667-2.667v-5.333c0-1.467-1.2-2.667-2.667-2.667h-5.333c-1.467 0-2.667 1.2-2.667 2.667v5.333c0 1.467 1.2 2.667 2.667 2.667zM6.667 20h5.333v5.333h-5.333v-5.333z"></path>
<path fill="#9b6109" style="fill: var(--color1, #9b6109)" d="M6.667 20h5.333v5.333h-5.333v-5.333z"></path>
<path fill="#9b6109" style="fill: var(--color1, #9b6109)" d="M17.333 6.667v5.333c0 1.467 1.2 2.667 2.667 2.667h5.333c1.467 0 2.667-1.2 2.667-2.667v-5.333c0-1.467-1.2-2.667-2.667-2.667h-5.333c-1.467 0-2.667 1.2-2.667 2.667zM25.333 12h-5.333v-5.333h5.333v5.333z"></path>
<path fill="#9b6109" style="fill: var(--color1, #9b6109)" d="M25.333 12h-5.333v-5.333h5.333v5.333z"></path>
<path fill="#9b6109" style="fill: var(--color1, #9b6109)" d="M28 27.333v-1.333c0-0.373-0.293-0.667-0.667-0.667h-1.333c-0.373 0-0.667 0.293-0.667 0.667v1.333c0 0.373 0.293 0.667 0.667 0.667h1.333c0.373 0 0.667-0.293 0.667-0.667z"></path>
<path fill="#9b6109" style="fill: var(--color1, #9b6109)" d="M17.333 18v1.333c0 0.373 0.293 0.667 0.667 0.667h1.333c0.373 0 0.667-0.293 0.667-0.667v-1.333c0-0.373-0.293-0.667-0.667-0.667h-1.333c-0.373 0-0.667 0.293-0.667 0.667z"></path>
<path fill="#9b6109" style="fill: var(--color1, #9b6109)" d="M22 20h-1.333c-0.373 0-0.667 0.293-0.667 0.667v1.333c0 0.373 0.293 0.667 0.667 0.667h1.333c0.373 0 0.667-0.293 0.667-0.667v-1.333c0-0.373-0.293-0.667-0.667-0.667z"></path>
<path fill="#9b6109" style="fill: var(--color1, #9b6109)" d="M17.333 23.333v1.333c0 0.373 0.293 0.667 0.667 0.667h1.333c0.373 0 0.667-0.293 0.667-0.667v-1.333c0-0.373-0.293-0.667-0.667-0.667h-1.333c-0.373 0-0.667 0.293-0.667 0.667z"></path>
<path fill="#9b6109" style="fill: var(--color1, #9b6109)" d="M20.667 28h1.333c0.373 0 0.667-0.293 0.667-0.667v-1.333c0-0.373-0.293-0.667-0.667-0.667h-1.333c-0.373 0-0.667 0.293-0.667 0.667v1.333c0 0.373 0.293 0.667 0.667 0.667z"></path>
<path fill="#9b6109" style="fill: var(--color1, #9b6109)" d="M23.333 25.333h1.333c0.373 0 0.667-0.293 0.667-0.667v-1.333c0-0.373-0.293-0.667-0.667-0.667h-1.333c-0.373 0-0.667 0.293-0.667 0.667v1.333c0 0.373 0.293 0.667 0.667 0.667z"></path>
<path fill="#9b6109" style="fill: var(--color1, #9b6109)" d="M24.667 17.333h-1.333c-0.373 0-0.667 0.293-0.667 0.667v1.333c0 0.373 0.293 0.667 0.667 0.667h1.333c0.373 0 0.667-0.293 0.667-0.667v-1.333c0-0.373-0.293-0.667-0.667-0.667z"></path>
<path fill="#9b6109" style="fill: var(--color1, #9b6109)" d="M26 22.667h1.333c0.373 0 0.667-0.293 0.667-0.667v-1.333c0-0.373-0.293-0.667-0.667-0.667h-1.333c-0.373 0-0.667 0.293-0.667 0.667v1.333c0 0.373 0.293 0.667 0.667 0.667z"></path>
</symbol>
<symbol id="icon-tabler" viewBox="0 0 32 32">
<path fill="none" stroke="#9b6109" style="stroke: var(--color1, #9b6109)" stroke-linejoin="round" stroke-linecap="round" stroke-miterlimit="4" stroke-width="2.6667" d="M17.333 6.667h10.667M17.333 12h6.667M17.333 20h10.667M17.333 25.333h6.667M4 6.667c0-0.354 0.14-0.693 0.391-0.943s0.589-0.391 0.943-0.391h5.333c0.354 0 0.693 0.14 0.943 0.391s0.391 0.589 0.391 0.943v5.333c0 0.354-0.14 0.693-0.391 0.943s-0.589 0.391-0.943 0.391h-5.333c-0.354 0-0.693-0.14-0.943-0.391s-0.391-0.589-0.391-0.943v-5.333zM4 20c0-0.354 0.14-0.693 0.391-0.943s0.589-0.391 0.943-0.391h5.333c0.354 0 0.693 0.141 0.943 0.391s0.391 0.589 0.391 0.943v5.333c0 0.354-0.14 0.693-0.391 0.943s-0.589 0.391-0.943 0.391h-5.333c-0.354 0-0.693-0.141-0.943-0.391s-0.391-0.589-0.391-0.943v-5.333z"></path>
</symbol>
</defs>
</svg>
