<svg aria-hidden="true" style="position: absolute; width: 0; height: 0; overflow: hidden;" version="1.1" xmlns="http://www.w3.org/2000/svg" xmlns:xlink="http://www.w3.org/1999/xlink">
<defs>
<symbol id="icon-facebook" viewBox="0 0 32 32">
<path fill="#fff" style="fill: var(--color1, #fff)" d="M16 3.556c6.874 0 12.444 5.57 12.444 12.444 0 6.362-4.774 11.608-10.936 12.355v-0c0 0 0 0 0 0v-8.552h3.365l0.697-3.803h-4.067v-1.344c0-0.157 0.005-0.306 0.015-0.449 0.005-0.076 0.012-0.149 0.020-0.22 0.172-1.515 0.996-2.113 2.793-2.113 0.637 0 1.145 0.015 1.439 0.045v-0c0 0 0 0 0 0v-3.45c-0.558-0.154-1.916-0.309-2.703-0.309-4.135 0-6.053 1.941-6.073 6.132-0 0.023-0 0.047-0 0.071v1.637l-2.569 0v3.803h2.569v8.273c-5.421-1.344-9.438-6.242-9.438-12.076 0-6.874 5.57-12.444 12.444-12.444z"></path>
</symbol>
<symbol id="icon-instagram" viewBox="0 0 32 32">
<path fill="#fff" style="fill: var(--color1, #fff); stroke: var(--color1, #fff)" stroke="#fff" stroke-linejoin="miter" stroke-linecap="butt" stroke-miterlimit="4" stroke-width="0.5333" d="M11.222 3.556c-4.222 0-7.667 3.444-7.667 7.667v10c0 4.222 3.444 7.667 7.667 7.667h10c4.222 0 7.667-3.445 7.667-7.667v-10c0-4.223-3.445-7.667-7.667-7.667h-10zM11.222 5.556h10c3.141 0 5.667 2.525 5.667 5.667v10c0 3.141-2.526 5.667-5.667 5.667h-10c-3.141 0-5.667-2.526-5.667-5.667v-10c0-3.142 2.525-5.667 5.667-5.667zM22.889 8.222c-0.737 0-1.333 0.597-1.333 1.333s0.597 1.333 1.333 1.333 1.333-0.597 1.333-1.333c0-0.737-0.597-1.333-1.333-1.333zM16.222 9.556c-3.67 0-6.667 2.997-6.667 6.667s2.997 6.667 6.667 6.667c3.67 0 6.667-2.997 6.667-6.667s-2.997-6.667-6.667-6.667zM16.222 11.556c2.589 0 4.667 2.078 4.667 4.667s-2.078 4.667-4.667 4.667c-2.589 0-4.667-2.078-4.667-4.667s2.078-4.667 4.667-4.667z"></path>
</symbol>
<symbol id="icon-linkedin" viewBox="0 0 32 32">
<path fill="#fff" style="fill: var(--color1, #fff)" d="M15.996 3.563c3.533 0 7.065 0.010 10.598-0.008 0.941-0.004 1.703 0.67 1.829 1.497 0.014 0.091 0.021 0.184 0.021 0.278 0 7.116 0 14.231 0 21.347 0 0.944-0.75 1.724-1.689 1.765-0.062 0.002-0.124 0.002-0.187 0.002-7.049 0-14.099 0-21.15 0-0.885 0-1.553-0.476-1.787-1.278-0.049-0.169-0.074-0.349-0.076-0.526 0-7.090 0-14.183 0-21.275 0-1.010 0.76-1.789 1.771-1.8 0.853-0.010 1.709-0.002 2.562-0.002 2.702 0 5.405 0 8.105 0h0.002zM16.828 14.489c0-0.497-0.010-0.922 0.004-1.35 0.006-0.208-0.053-0.283-0.274-0.281-1.017 0.012-2.034 0.014-3.050 0-0.243-0.004-0.297 0.076-0.297 0.305 0.006 3.783 0.006 7.564 0 11.347 0 0.231 0.060 0.313 0.299 0.309 1.056-0.012 2.111-0.012 3.167 0 0.235 0.002 0.301-0.068 0.299-0.305-0.010-1.903-0.010-3.806 0-5.71 0.002-0.394 0.027-0.792 0.095-1.179 0.144-0.804 0.509-1.457 1.371-1.672 0.259-0.064 0.537-0.080 0.805-0.076 0.898 0.010 1.446 0.425 1.645 1.307 0.107 0.472 0.148 0.965 0.152 1.451 0.016 1.958 0.010 3.915 0.002 5.873 0 0.227 0.058 0.315 0.301 0.313 1.056-0.012 2.111-0.010 3.167 0 0.226 0.002 0.288-0.072 0.288-0.293-0.008-2.105-0.006-4.21 0-6.315 0.002-0.862-0.043-1.721-0.241-2.563-0.27-1.152-0.801-2.132-1.933-2.639-1.124-0.503-2.302-0.602-3.496-0.291-0.98 0.256-1.724 0.856-2.306 1.771h0.002zM7.203 18.833c0 1.903 0.002 3.804-0.004 5.708 0 0.194 0.041 0.28 0.253 0.278 1.087-0.008 2.174-0.008 3.26 0 0.196 0 0.251-0.074 0.251-0.262-0.004-3.812-0.004-7.624 0-11.437 0-0.21-0.072-0.26-0.27-0.26-1.071 0.008-2.142 0.010-3.214 0-0.231-0.002-0.282 0.074-0.282 0.291 0.008 1.895 0.004 3.789 0.004 5.684l0.002-0.002zM9.077 11.269c1.201 0 2.164-0.954 2.166-2.144 0-1.208-0.96-2.177-2.16-2.179-1.207 0-2.162 0.959-2.162 2.171 0 1.198 0.957 2.152 2.156 2.152z"></path>
</symbol>
<symbol id="icon-arrow-left" viewBox="0 0 32 32">
<path fill="#9b6109" style="fill: var(--color2, #9b6109)" d="M19.613 21.173l-5.173-5.173 5.173-5.173c0.52-0.52 0.52-1.36 0-1.88s-1.36-0.52-1.88 0l-6.12 6.12c-0.52 0.52-0.52 1.36 0 1.88l6.12 6.12c0.52 0.52 1.36 0.52 1.88 0 0.507-0.52 0.52-1.373 0-1.893z"></path>
</symbol>
<symbol
  id="icon-facebook-messenger"
  viewBox="0 0 20 20"
  fill="none"
  xmlns="http://www.w3.org/2000/svg"
>
  <path
    fill-rule="evenodd"
    clip-rule="evenodd"
    d="M10 0.859375C4.71878 0.859375 0.625 4.72787 0.625 9.95312C0.625 12.6863 1.74513 15.048 3.56928 16.6793C3.72241 16.8164 3.81484 17.0084 3.82113 17.2139L3.87218 18.8815C3.88849 19.4134 4.43794 19.7596 4.92469 19.5447L6.7855 18.7233C6.94324 18.6537 7.12 18.6408 7.28622 18.6865C8.14131 18.9216 9.0514 19.0469 10 19.0469C15.2812 19.0469 19.375 15.1784 19.375 9.95312C19.375 4.72787 15.2812 0.859375 10 0.859375Z"
    fill="#9B6109"
  />
  <path
    fill-rule="evenodd"
    clip-rule="evenodd"
    d="M4.37047 12.6129L7.12438 8.24376C7.56243 7.54869 8.5005 7.37563 9.15778 7.86857L11.3481 9.51131C11.5491 9.66206 11.8256 9.66126 12.0257 9.50938L14.9838 7.26435C15.3787 6.96472 15.894 7.43722 15.6298 7.85653L12.8759 12.2257C12.4378 12.9207 11.4997 13.0938 10.8425 12.6008L8.65213 10.9581C8.45118 10.8074 8.17466 10.8082 7.97456 10.96L5.01641 13.2051C4.62159 13.5047 4.10619 13.0322 4.37047 12.6129Z"
    fill="white"
  />
</symbol>
<symbol
  id="icon-phone"
  viewBox="0 0 18 18"
  fill="none"
  xmlns="http://www.w3.org/2000/svg"
>
  <path
    d="M16.23 12.26L13.69 11.97C13.08 11.9 12.48 12.11 12.05 12.54L10.21 14.38C7.38004 12.94 5.06004 10.63 3.62004 7.79001L5.47004 5.94001C5.90004 5.51001 6.11004 4.91001 6.04004 4.30001L5.75004 1.78001C5.63004 0.77001 4.78004 0.0100098 3.76004 0.0100098H2.03004C0.900041 0.0100098 -0.0399593 0.95001 0.0300407 2.08001C0.560041 10.62 7.39004 17.44 15.92 17.97C17.05 18.04 17.99 17.1 17.99 15.97V14.24C18 13.23 17.24 12.38 16.23 12.26Z"
    fill="#9B6109"
  />
</symbol>
<symbol
  id="icon-emoji"
  viewBox="0 0 20 20"
  fill="none"
  xmlns="http://www.w3.org/2000/svg"
>
  <path
    d="M13.5 9C14.3284 9 15 8.32843 15 7.5C15 6.67157 14.3284 6 13.5 6C12.6716 6 12 6.67157 12 7.5C12 8.32843 12.6716 9 13.5 9Z"
    fill="#9B6109"
  />
  <path
    d="M6.5 9C7.32843 9 8 8.32843 8 7.5C8 6.67157 7.32843 6 6.5 6C5.67157 6 5 6.67157 5 7.5C5 8.32843 5.67157 9 6.5 9Z"
    fill="#9B6109"
  />
  <path
    d="M9.99 0C4.47 0 0 4.48 0 10C0 15.52 4.47 20 9.99 20C15.52 20 20 15.52 20 10C20 4.48 15.52 0 9.99 0ZM10 18C5.58 18 2 14.42 2 10C2 5.58 5.58 2 10 2C14.42 2 18 5.58 18 10C18 14.42 14.42 18 10 18ZM14.41 11.89C14.06 11.67 13.59 11.78 13.38 12.13C12.64 13.3 11.38 14 10 14C8.62 14 7.36 13.3 6.62 12.12C6.4 11.77 5.94 11.66 5.59 11.88C5.24 12.1 5.13 12.56 5.35 12.91C6.37 14.54 8.1 15.5 10 15.5C11.9 15.5 13.63 14.53 14.65 12.92C14.87 12.57 14.76 12.11 14.41 11.89Z"
    fill="#9B6109"
  />
</symbol>
<symbol
  id="icon-clock"
  viewBox="0 0 20 20"
  fill="none"
  xmlns="http://www.w3.org/2000/svg"
>
  <path
    d="M9.99 0C4.47 0 0 4.48 0 10C0 15.52 4.47 20 9.99 20C15.52 20 20 15.52 20 10C20 4.48 15.52 0 9.99 0ZM10 18C5.58 18 2 14.42 2 10C2 5.58 5.58 2 10 2C14.42 2 18 5.58 18 10C18 14.42 14.42 18 10 18ZM9.78 5H9.72C9.32 5 9 5.32 9 5.72V10.44C9 10.79 9.18 11.12 9.49 11.3L13.64 13.79C13.98 13.99 14.42 13.89 14.62 13.55C14.83 13.21 14.72 12.76 14.37 12.56L10.5 10.26V5.72C10.5 5.32 10.18 5 9.78 5Z"
    fill="#9B6109"
  />
</symbol>
<symbol
  id="icon-magazine"
  viewBox="0 0 18 20"
  fill="none"
  xmlns="http://www.w3.org/2000/svg"
>
  <path
    d="M16.5 1.5L15 0L13.5 1.5L12 0L10.5 1.5L9 0L7.5 1.5L6 0L4.5 1.5L3 0V14H0V17C0 18.66 1.34 20 3 20H15C16.66 20 18 18.66 18 17V0L16.5 1.5ZM12 18H3C2.45 18 2 17.55 2 17V16H12V18ZM16 17C16 17.55 15.55 18 15 18C14.45 18 14 17.55 14 17V14H5V3H16V17Z"
    fill="#9B6109"
  />
  <path d="M12 5H6V7H12V5Z" fill="#9B6109" />
  <path d="M15 5H13V7H15V5Z" fill="#9B6109" />
  <path d="M12 8H6V10H12V8Z" fill="#9B6109" />
  <path d="M15 8H13V10H15V8Z" fill="#9B6109" />
</symbol>
<symbol
  id="icon-mobile"
  viewBox="0 0 13 22"
  fill="none"
  xmlns="http://www.w3.org/2000/svg"
>
  <path
    d="M10.5 0H2.5C1.12 0 0 1.12 0 2.5V19.5C0 20.88 1.12 22 2.5 22H10.5C11.88 22 13 20.88 13 19.5V2.5C13 1.12 11.88 0 10.5 0ZM6.5 21C5.67 21 5 20.33 5 19.5C5 18.67 5.67 18 6.5 18C7.33 18 8 18.67 8 19.5C8 20.33 7.33 21 6.5 21ZM11 17H2V3H11V17Z"
    fill="#9B6109"
  />
</symbol>
<symbol
  id="icon-pen"
  viewBox="0 0 18 18"
  fill="none"
  xmlns="http://www.w3.org/2000/svg"
>
  <path
    d="M15.85 7.39L16.91 6.33C17.69 5.55 17.69 4.28 16.91 3.5L15.5 2.09C14.72 1.31 13.45 1.31 12.67 2.09L11.61 3.15L15.85 7.39ZM10.19 4.56L1.14 13.61C1.05 13.7 1 13.83 1 13.96V17.5C1 17.78 1.22 18 1.5 18H5.04C5.17 18 5.3 17.95 5.39 17.85L14.44 8.8L10.19 4.56ZM16 14.5C16 16.69 13.46 18 11 18C10.45 18 10 17.55 10 17C10 16.45 10.45 16 11 16C12.54 16 14 15.27 14 14.5C14 14.03 13.52 13.63 12.77 13.3L14.25 11.82C15.32 12.45 16 13.29 16 14.5ZM1.58 10.35C0.61 9.79 0 9.06 0 8C0 6.2 1.89 5.37 3.56 4.64C4.59 4.18 6 3.56 6 3C6 2.59 5.22 2 4 2C2.74 2 2.2 2.61 2.17 2.64C1.82 3.05 1.19 3.1 0.77 2.76C0.36 2.42 0.28 1.81 0.62 1.38C0.73 1.24 1.76 0 4 0C6.24 0 8 1.32 8 3C8 4.87 6.07 5.72 4.36 6.47C3.42 6.88 2 7.5 2 8C2 8.31 2.43 8.6 3.07 8.86L1.58 10.35Z"
    fill="#9B6109"
  />
</symbol>
<symbol
  id="icon-letters"
  viewBox="0 0 19 15"
  fill="none"
  xmlns="http://www.w3.org/2000/svg"
>
  <path
    d="M6 1.5C6 2.33 6.67 3 7.5 3H11V13.5C11 14.33 11.67 15 12.5 15C13.33 15 14 14.33 14 13.5V3H17.5C18.33 3 19 2.33 19 1.5C19 0.67 18.33 0 17.5 0H7.5C6.67 0 6 0.67 6 1.5ZM1.5 8H3V13.5C3 14.33 3.67 15 4.5 15C5.33 15 6 14.33 6 13.5V8H7.5C8.33 8 9 7.33 9 6.5C9 5.67 8.33 5 7.5 5H1.5C0.67 5 0 5.67 0 6.5C0 7.33 0.67 8 1.5 8Z"
    fill="#9B6109"
  />
</symbol>
<symbol
  id="icon-qrcode"
  viewBox="0 0 18 18"
  fill="none"
  xmlns="http://www.w3.org/2000/svg"
>
  <path
    d="M2 8H6C7.1 8 8 7.1 8 6V2C8 0.9 7.1 0 6 0H2C0.9 0 0 0.9 0 2V6C0 7.1 0.9 8 2 8ZM2 2H6V6H2V2Z"
    fill="#9B6109"
  />
  <path
    d="M2 18H6C7.1 18 8 17.1 8 16V12C8 10.9 7.1 10 6 10H2C0.9 10 0 10.9 0 12V16C0 17.1 0.9 18 2 18ZM2 12H6V16H2V12Z"
    fill="#9B6109"
  />
  <path
    d="M10 2V6C10 7.1 10.9 8 12 8H16C17.1 8 18 7.1 18 6V2C18 0.9 17.1 0 16 0H12C10.9 0 10 0.9 10 2ZM16 6H12V2H16V6Z"
    fill="#9B6109"
  />
  <path
    d="M18 17.5V16.5C18 16.22 17.78 16 17.5 16H16.5C16.22 16 16 16.22 16 16.5V17.5C16 17.78 16.22 18 16.5 18H17.5C17.78 18 18 17.78 18 17.5Z"
    fill="#9B6109"
  />
  <path
    d="M10 10.5V11.5C10 11.78 10.22 12 10.5 12H11.5C11.78 12 12 11.78 12 11.5V10.5C12 10.22 11.78 10 11.5 10H10.5C10.22 10 10 10.22 10 10.5Z"
    fill="#9B6109"
  />
  <path
    d="M13.5 12H12.5C12.22 12 12 12.22 12 12.5V13.5C12 13.78 12.22 14 12.5 14H13.5C13.78 14 14 13.78 14 13.5V12.5C14 12.22 13.78 12 13.5 12Z"
    fill="#9B6109"
  />
  <path
    d="M10 14.5V15.5C10 15.78 10.22 16 10.5 16H11.5C11.78 16 12 15.78 12 15.5V14.5C12 14.22 11.78 14 11.5 14H10.5C10.22 14 10 14.22 10 14.5Z"
    fill="#9B6109"
  />
  <path
    d="M12.5 18H13.5C13.78 18 14 17.78 14 17.5V16.5C14 16.22 13.78 16 13.5 16H12.5C12.22 16 12 16.22 12 16.5V17.5C12 17.78 12.22 18 12.5 18Z"
    fill="#9B6109"
  />
  <path
    d="M14.5 16H15.5C15.78 16 16 15.78 16 15.5V14.5C16 14.22 15.78 14 15.5 14H14.5C14.22 14 14 14.22 14 14.5V15.5C14 15.78 14.22 16 14.5 16Z"
    fill="#9B6109"
  />
  <path
    d="M15.5 10H14.5C14.22 10 14 10.22 14 10.5V11.5C14 11.78 14.22 12 14.5 12H15.5C15.78 12 16 11.78 16 11.5V10.5C16 10.22 15.78 10 15.5 10Z"
    fill="#9B6109"
  />
  <path
    d="M16.5 14H17.5C17.78 14 18 13.78 18 13.5V12.5C18 12.22 17.78 12 17.5 12H16.5C16.22 12 16 12.22 16 12.5V13.5C16 13.78 16.22 14 16.5 14Z"
    fill="#9B6109"
  />
</symbol>
<symbol
  id="icon-letter-rectangle"
  viewBox="0 0 22 22"
  fill="none"
  xmlns="http://www.w3.org/2000/svg"
>
  <path
    d="M22 5V1C22 0.45 21.55 0 21 0H17C16.45 0 16 0.45 16 1V2H6V1C6 0.45 5.55 0 5 0H1C0.45 0 0 0.45 0 1V5C0 5.55 0.45 6 1 6H2V16H1C0.45 16 0 16.45 0 17V21C0 21.55 0.45 22 1 22H5C5.55 22 6 21.55 6 21V20H16V21C16 21.55 16.45 22 17 22H21C21.55 22 22 21.55 22 21V17C22 16.45 21.55 16 21 16H20V6H21C21.55 6 22 5.55 22 5ZM2 2H4V4H2V2ZM4 20H2V18H4V20ZM16 18H6V17C6 16.45 5.55 16 5 16H4V6H5C5.55 6 6 5.55 6 5V4H16V5C16 5.55 16.45 6 17 6H18V16H17C16.45 16 16 16.45 16 17V18ZM20 20H18V18H20V20ZM18 4V2H20V4H18ZM11.94 6.65C11.79 6.26 11.41 6 10.99 6C10.57 6 10.19 6.26 10.05 6.65L7.28 13.98C7.09 14.47 7.45 15 7.98 15C8.3 15 8.58 14.8 8.69 14.5L9.24 13H12.73L13.29 14.51C13.4 14.8 13.68 15 14 15H14.01C14.54 15 14.9 14.47 14.72 13.98L11.94 6.65ZM9.69 11.74L11 7.91L12.3 11.74H9.69Z"
    fill="#9B6109"
  />
</symbol>
<symbol
  id="icon-info"
  viewBox="0 0 20 20"
  fill="none"
  xmlns="http://www.w3.org/2000/svg"
>
  <path
    d="M10 0C4.48 0 0 4.48 0 10C0 15.52 4.48 20 10 20C15.52 20 20 15.52 20 10C20 4.48 15.52 0 10 0ZM10 15C9.45 15 9 14.55 9 14V10C9 9.45 9.45 9 10 9C10.55 9 11 9.45 11 10V14C11 14.55 10.55 15 10 15ZM11 7H9V5H11V7Z"
    fill="#9B6109"
  />
</symbol>
<symbol
  id="icon-hosting"
  viewBox="0 0 18 18"
  fill="none"
  xmlns="http://www.w3.org/2000/svg"
>
  <path
    d="M16 12V16H2V12H16ZM17 10H1C0.45 10 0 10.45 0 11V17C0 17.55 0.45 18 1 18H17C17.55 18 18 17.55 18 17V11C18 10.45 17.55 10 17 10ZM4 15.5C3.18 15.5 2.5 14.83 2.5 14C2.5 13.17 3.18 12.5 4 12.5C4.82 12.5 5.5 13.17 5.5 14C5.5 14.83 4.83 15.5 4 15.5ZM16 2V6H2V2H16ZM17 0H1C0.45 0 0 0.45 0 1V7C0 7.55 0.45 8 1 8H17C17.55 8 18 7.55 18 7V1C18 0.45 17.55 0 17 0ZM4 5.5C3.18 5.5 2.5 4.83 2.5 4C2.5 3.17 3.18 2.5 4 2.5C4.82 2.5 5.5 3.18 5.5 4C5.5 4.82 4.83 5.5 4 5.5Z"
    fill="#9B6109"
  />
</symbol>
<symbol
  id="icon-domain"
  viewBox="0 0 20 18"
  fill="none"
  xmlns="http://www.w3.org/2000/svg"
>
  <path
    d="M10 4V0H0V18H20V4H10ZM4 16H2V14H4V16ZM4 12H2V10H4V12ZM4 8H2V6H4V8ZM4 4H2V2H4V4ZM8 16H6V14H8V16ZM8 12H6V10H8V12ZM8 8H6V6H8V8ZM8 4H6V2H8V4ZM18 16H10V14H12V12H10V10H12V8H10V6H18V16ZM16 8H14V10H16V8ZM16 12H14V14H16V12Z"
    fill="#9B6109"
  />
</symbol>
<symbol
  id="icon-like"
  viewBox="0 0 23 20"
  fill="none"
  xmlns="http://www.w3.org/2000/svg"
>
  <path
    d="M12.12 1.06003L6.58 6.60003C6.21 6.97003 6 7.48003 6 8.01003V18C6 19.1 6.9 20 8 20H17C17.8 20 18.52 19.52 18.84 18.79L22.1 11.18C22.94 9.20003 21.49 7.00003 19.34 7.00003H13.69L14.64 2.42003C14.74 1.92003 14.59 1.41003 14.23 1.05003C13.64 0.47003 12.7 0.47003 12.12 1.06003ZM2 20C3.1 20 4 19.1 4 18V10C4 8.90003 3.1 8.00003 2 8.00003C0.9 8.00003 0 8.90003 0 10V18C0 19.1 0.9 20 2 20Z"
    fill="#9B6109"
  />
</symbol>
</defs>
</svg>
